<?xml version="1.0" encoding="UTF-8" standalone="no"?>
<!-- Created with Inkscape (http://www.inkscape.org/) -->

<svg
   version="1.1"
   id="svg1"
   width="960"
   height="720"
   viewBox="0 0 960 720"
   sodipodi:docname="KR-EPS-01-0002.ai"
   xmlns:inkscape="http://www.inkscape.org/namespaces/inkscape"
   xmlns:sodipodi="http://sodipodi.sourceforge.net/DTD/sodipodi-0.dtd"
   xmlns="http://www.w3.org/2000/svg"
   xmlns:svg="http://www.w3.org/2000/svg">
  <defs
     id="defs1" />
  <sodipodi:namedview
     id="namedview1"
     pagecolor="#ffffff"
     bordercolor="#000000"
     borderopacity="0.25"
     inkscape:showpageshadow="2"
     inkscape:pageopacity="0.0"
     inkscape:pagecheckerboard="0"
     inkscape:deskcolor="#d1d1d1">
    <inkscape:page
       x="0"
       y="0"
       inkscape:label="1"
       id="page1"
       width="960"
       height="720"
       margin="0"
       bleed="0" />
  </sodipodi:namedview>
  <g
     id="layer-MC0"
     inkscape:groupmode="layer"
     inkscape:label="Background">
    <path
       id="path1"
       d="M 0,0 H 720 V 540 H 0 Z"
       style="fill:#f9f9f9;fill-opacity:1;fill-rule:nonzero;stroke:none"
       transform="matrix(1.3333333,0,0,-1.3333333,0,720)" />
  </g>
  <g
     id="layer-MC1"
     inkscape:groupmode="layer"
     inkscape:label="South Korea">
    <path
       id="path2"
       d="M 0,0 4.152,0.751 7.687,-0.115 7.727,-0.104 7.795,-0.187 8.094,-0.715 7.925,-1.911 7.829,-3.328 7.527,-5.457 7.073,-6.358 6.34,-7.35 5.664,-7.715 5.369,-6.749 5.107,-5.49 4.53,-4.547 3.909,-4.386 3.538,-5.457 4.148,-5.598 4.512,-6.06 4.687,-6.735 4.727,-7.515 4.53,-8.251 4.072,-8.422 3.561,-8.469 3.204,-8.826 3.27,-9.219 l 0.057,-1.018 0.182,-1.051 -0.416,-0.674 -0.378,-0.674 0.372,-0.525 0.298,-0.301 -0.061,-0.744 -0.919,-0.302 -0.864,-0.521 -1.24,-1.231 -1.05,0.039 -0.017,-0.057 -0.18,0.156 -1.269,0.449 -0.973,0.965 -0.3,1.519 -1.025,0.799 -2.298,1.267 -1.928,2.208 -1.158,0.881 -2.75,0.423 -0.669,1.353 1.116,2.254 -0.19,2.183 1.076,0.871 1.149,0.671 0.687,0.016 0.282,0.539 -0.429,0.71 -0.245,0.77 1.505,1.168 1.886,0.66 1.546,0.234 1.514,-0.318 1.573,-0.679 0.41,-0.675 0.024,-0.821 0.111,-0.732 0.554,-0.399 z"
       style="fill:#878787;fill-opacity:1;fill-rule:evenodd;stroke:#f9f9f9;stroke-width:0.25;stroke-linecap:round;stroke-linejoin:round;stroke-miterlimit:4;stroke-dasharray:none;stroke-opacity:1"
       transform="matrix(1.3333333,0,0,-1.3333333,573.85547,385.48307)" />
    <path
       id="path3"
       d="m 0,0 -0.337,0.1 -0.42,-0.038 0.024,-0.361 -0.06,-0.466 -0.42,-1.101 -0.005,-0.356 -0.134,-0.515 -0.997,-0.605 -2.579,0.672 -1.444,0.146 -0.637,-0.504 -0.637,-1.115 -0.341,-0.292 -0.41,0.34 -0.55,0.356 -0.788,0.64 -0.532,1.027 -0.65,0.64 -0.692,0.271 -0.268,1.016 0.618,0.865 0.669,0.004 0.721,0.118 0.188,0.521 0.083,0.55 -0.391,0.145 -0.425,0.07 0.479,1.083 0.767,0.844 -0.282,2.513 2.099,1.745 2.843,0.382 L -2.15,8.849 -0.359,7.535 0.208,6.545 0.185,6.109 -0.032,5.742 -0.019,4.348 0.342,3.807 0.821,3.398 0.914,2.523 0.937,1.591 0.697,0.72 Z"
       style="fill:#878787;fill-opacity:1;fill-rule:evenodd;stroke:#f9f9f9;stroke-width:0.25;stroke-linecap:round;stroke-linejoin:round;stroke-miterlimit:4;stroke-dasharray:none;stroke-opacity:1"
       transform="matrix(1.3333333,0,0,-1.3333333,541.43227,368.16667)" />
    <path
       id="path4"
       d="M 0,0 1.223,0.015 2.271,0.393 3.179,0.406 3.521,-0.413 3.401,-1.252 2.778,-1.568 2.1,-2.019 2.114,-3.037 2.474,-3.441 1.708,-4.488 1.283,-5.223 0.125,-5.912 l -1.274,-0.296 -1.31,-0.66 -0.512,1.177 -1.117,-0.259 -1.107,-0.345 -0.785,-0.451 -0.816,-0.133 -1.915,0.065 -1.311,1.725 -1.292,0.389 -0.891,0.587 -0.235,1.615 -0.886,1.265 -1.056,1.294 0.669,1.439 1.25,-0.08 1.431,-0.873 1.061,0.361 0.946,0.576 0.073,0.97 0.259,0.894 2.003,0.192 1.028,1.311 0.628,1.332 0.89,0.954 L -2.75,7.471 -1.144,7.34 -0.378,6.02 -0.083,4.225 0.383,2.971 0.411,1.595 Z"
       style="fill:#878787;fill-opacity:1;fill-rule:evenodd;stroke:#f9f9f9;stroke-width:0.25;stroke-linecap:round;stroke-linejoin:round;stroke-miterlimit:4;stroke-dasharray:none;stroke-opacity:1"
       transform="matrix(1.3333333,0,0,-1.3333333,444.67453,241.81187)" />
    <path
       id="path5"
       d="M 0,0 0.466,-0.119 0.872,-0.764 1.192,-1.56 1.57,-2.919 1.609,-3.712 1.476,-4.482 1.152,-5.229 0.705,-5.687 l -0.501,-0.04 -0.502,0.269 -1.58,1.611 -0.185,0.627 0.268,0.998 0.196,0.261 0.836,0.634 0.15,0.324 0.338,1.379 -0.676,0.72 0.079,0.44 0.487,0.226 L 0.171,1.825 0.65,1.608 0.771,1.101 0.542,0.502 Z"
       style="fill:#878787;fill-opacity:1;fill-rule:evenodd;stroke:#f9f9f9;stroke-width:0.25;stroke-linecap:round;stroke-linejoin:round;stroke-miterlimit:4;stroke-dasharray:none;stroke-opacity:1"
       transform="matrix(1.3333333,0,0,-1.3333333,484.33067,453.05467)" />
    <path
       id="path6"
       d="m 0,0 0.904,-2.499 -1.758,-2.347 -2.754,0.441 -2.432,1.46 -1.223,2.688 0.965,0.912 1.601,-0.425 1.172,0.268 1.222,0.367 z"
       style="fill:#878787;fill-opacity:1;fill-rule:evenodd;stroke:#f9f9f9;stroke-width:0.25;stroke-linecap:round;stroke-linejoin:round;stroke-miterlimit:4;stroke-dasharray:none;stroke-opacity:1"
       transform="matrix(1.3333333,0,0,-1.3333333,436.91667,412.79813)" />
    <path
       id="path7"
       d="m 0,0 -0.572,-0.602 -0.573,-0.524 -0.655,0.355 -0.65,0.622 -1.648,-0.745 -1.435,-0.879 -0.715,0.205 -0.416,0.52 -1.998,0.657 -0.669,0.795 -0.756,0.446 -0.291,-0.389 -0.36,-0.088 -0.425,0.389 -0.382,0.461 -1.057,-1.062 -1.085,-0.953 -1.324,-0.369 -1.315,-0.061 -0.964,-0.236 -2.584,0.339 -0.185,0.443 0.314,0.631 -0.268,0.55 -0.572,0.145 -1.481,0.746 -2.007,3.621 -1.426,1.268 -0.748,-0.767 -0.599,-0.935 -0.937,-0.194 -0.632,-0.283 -0.646,-0.225 -2.46,-0.48 -1.25,-0.485 -1.32,-0.247 -0.95,1.481 0.396,2.439 -1.647,0.33 -4.623,-1.46 -2.51,-0.539 -2.137,-0.234 -2.009,-2.481 h 10e-4 l 2.615,0.809 -0.079,-0.798 -0.883,-0.633 -2.089,-0.833 -1.646,-1.251 -0.937,-0.481 -0.767,0.225 -0.72,-0.433 -2.225,-0.132 -2.201,-0.274 -4.046,-0.437 0.193,-1.664 1.964,0.309 1.332,-0.457 0.413,-0.361 0.135,-1.305 0.02,-0.948 2.134,-0.17 2.162,-0.142 1.1,0.055 3.281,1.327 0.142,0.112 0.527,-0.195 0.476,-0.415 0.232,-0.404 -0.196,-0.179 -0.614,-0.106 -0.214,-0.28 -0.102,-0.405 -0.272,-0.496 -0.404,-0.21 -0.545,-0.045 -2.492,0.161 -0.407,-0.094 -0.371,-0.305 -0.37,-0.511 -0.12,-0.475 0.414,-0.211 0.788,-0.591 0.97,-0.662 0.853,-0.424 0.411,-0.3 0.597,-0.476 -0.066,-0.647 -0.152,-0.622 -0.186,-0.449 -0.476,0.825 -0.712,0.179 -0.993,0.767 -1.568,0.194 -1.601,-0.162 -0.269,-0.234 -0.508,-0.322 -0.686,-0.408 -0.19,-1.642 -1.249,-1.746 -1.643,-0.907 -1.34,-0.782 -0.845,-0.969 -0.912,-0.902 -1.046,-0.521 -0.036,-0.59 -0.135,-1.478 2.207,-1.377 6.334,1.036 0.676,-0.388 0.414,-0.932 0.582,-2.05 -0.6,0.201 -0.817,1.012 -0.797,0.895 -0.889,-0.229 -0.629,-0.908 -0.654,-0.526 -1.419,-0.077 -1.659,-0.341 -1.457,-0.523 -1.02,-1.47 -1.21,-2.829 -0.766,-1.602 -0.327,-1.295 0.217,-0.584 0.617,-0.701 0.007,0.002 0.923,0.297 4.337,1.212 1.287,-0.346 -0.258,-2.003 -0.286,-1.474 -0.064,-1.483 1.112,-0.374 1.328,0.333 1.417,0.514 1.495,0.224 0.6,0.444 0.646,0.393 0.766,0.223 0.729,0.352 0.591,0.514 0.373,0.775 -0.087,0.56 -0.033,0.585 0.563,0.414 0.411,0.623 -0.041,0.741 0.004,0.741 1.121,1.008 1.514,-0.148 0.743,0.882 0.812,-0.057 0.78,-0.331 1.365,-1.12 2.095,-2.843 1.38,0.017 0.106,0.782 0.286,0.724 0.439,0.422 0.322,0.564 1.315,0.071 0.9,-1.372 -0.396,-1.58 0.272,-1.016 0.909,-1.027 -0.06,-1.811 1.075,-1.145 1.661,-0.247 1.283,0.768 1.347,0.223 0.928,-0.013 0.784,0.201 0.678,-0.524 0.762,-0.445 1.643,-0.03 1.619,0.217 1.481,0.012 1.399,0.195 1.3,1.402 1.62,0.904 2.856,-1.034 2.547,-2.056 0.937,0.958 0.065,1.35 0.295,1.464 1.864,2.233 0.268,1.503 -0.642,0.428 -0.456,1.036 0.078,1.402 -0.494,1.291 -0.083,0.693 -0.166,0.606 -1.144,0.484 0.046,1.381 0.623,1.273 0.383,1.711 0.521,1.656 0.692,1.296 0.563,1.232 0.13,1.69 0.498,1.441 1.02,0.906 0.964,1.009 0.84,1.819 0.438,0.282 0.609,-0.065 1.098,0.338 2.22,1.181 0.433,1.157 1.634,1.755 0.208,3.511 z m -70.3,-21.363 -0.163,-0.181 -0.338,-0.275 -0.506,0.092 -0.192,0.009 0.076,-0.302 -0.16,-0.073 -0.269,-0.045 -0.167,-0.237 -0.247,-0.139 -0.109,-0.129 0.222,-0.144 0.065,-0.088 -0.468,-0.247 -0.088,-0.348 0.142,-0.362 0.196,-0.206 0.258,0.059 0.146,0.134 0.348,0.27 0.553,0.617 0.821,0.71 0.167,0.409 -0.094,0.329 z"
       style="fill:#878787;fill-opacity:1;fill-rule:nonzero;stroke:#f9f9f9;stroke-width:0.25;stroke-linecap:round;stroke-linejoin:round;stroke-miterlimit:4;stroke-dasharray:none;stroke-opacity:1"
       transform="matrix(1.3333333,0,0,-1.3333333,490.01827,356.5124)" />
    <path
       id="path8"
       d="m 0,0 0.338,-0.695 -0.207,-0.238 -0.433,-0.126 -0.308,-0.37 0.021,-0.311 0.284,-0.494 v -0.29 l -0.153,-0.288 -0.381,-0.502 -0.077,-0.157 -0.805,-0.932 -1.517,-1.212 -0.47,-1.011 -0.672,-1.18 -0.032,-0.472 -0.297,-0.696 -1.101,-0.128 -0.425,-0.224 -1.172,0.103 -1.713,-1.353 -4.512,-0.83 -1.509,-1.284 -1.848,-0.412 -1.979,0.199 -2.261,-0.422 -1.879,0.565 -4.243,-0.06 -1.323,-0.62 -0.788,-1.397 -0.72,-0.15 -0.719,0.345 -1.016,1.648 -1.354,0.461 -1.314,1.378 -0.458,1.677 0.795,2.174 0.753,1.348 0.465,0.475 1.551,0.92 1.326,2.305 1.218,0.313 0.563,1.218 2.089,0.722 4.555,1.307 1.141,0.984 4.353,0.456 2.963,1.294 0.709,-0.201 3.608,0.583 2.092,0.174 1.384,-0.234 0.529,-0.796 0.658,-0.514 2.154,-0.857 0.655,-0.665 0.439,-1.602 0.433,-0.628 0.207,0.244 0.283,0.233 z"
       style="fill:#878787;fill-opacity:1;fill-rule:evenodd;stroke:#f9f9f9;stroke-width:0.25;stroke-linecap:round;stroke-linejoin:round;stroke-miterlimit:4;stroke-dasharray:none;stroke-opacity:1"
       transform="matrix(1.3333333,0,0,-1.3333333,434.56507,539.77347)" />
    <path
       id="path9"
       d="M 0,0 -0.72,0.473 -1.2,1.576 -1.195,2.905 -3.826,5.436 -6.115,5.354 -8.148,5.282 -8.367,3.92 -8.268,2.89 -8.03,2.328 l 0.919,0.1 0.163,0.49 L -6.346,2.754 -6.441,2.286 -6.825,2.089 -8.105,1.702 -8.54,0.947 -8.394,0.14 l -0.103,-1.027 0.733,-0.389 0.8,-0.435 0.371,-0.631 -0.592,-0.892 -0.459,-1.021 1.127,-0.863 1.09,1.393 2.34,-0.3 0.129,-0.381 1.407,0.412 0.333,0.245 0.586,0.435 0.636,1.231 0.42,1.386 z m -9.37,2.641 -0.236,0.223 -0.175,0.275 -0.175,0.181 -0.366,0.182 -0.269,0.053 -0.251,0.014 -0.254,0.105 -0.258,0.147 -0.25,0.098 -0.516,0.521 -0.633,-0.234 -0.31,-1.261 -0.908,-0.48 -0.984,0.024 -1.449,-0.158 -2.023,-1.419 -0.369,0.192 -0.266,-0.081 -0.171,-0.417 0.119,-0.293 0.489,-0.465 0.098,-0.305 -0.284,-0.282 0.481,-0.121 0.333,-0.151 0.276,0.217 0.18,0.238 0.271,-0.035 0.112,-0.274 -0.076,-0.198 0.051,-0.116 0.147,0.051 0.163,0.178 0.353,-0.224 0.187,-0.686 0.177,-0.044 0.409,0.047 0.438,-0.101 1.947,1.472 0.311,0.55 0.562,0.506 1.043,0.456 0.475,0.224 0.345,-0.058 0.78,0.188 0.153,0.203 0.377,0.282 0.242,0.101 -0.111,0.295 z"
       style="fill:#878787;fill-opacity:1;fill-rule:nonzero;stroke:#f9f9f9;stroke-width:0.25;stroke-linecap:round;stroke-linejoin:round;stroke-miterlimit:4;stroke-dasharray:none;stroke-opacity:1"
       transform="matrix(1.3333333,0,0,-1.3333333,425.05533,248.95053)" />
    <path
       id="path10"
       d="M 0,0 -0.437,0.428 -1.216,0.378 -1.903,0.205 -2.329,0.03 -2.633,0.179 -3.158,0.582 -3.847,0.862 -4.371,0.729 -4.729,0.333 l 0.095,-0.357 0.303,-0.016 0.51,0.161 0.804,-0.278 0.432,-0.342 -0.081,-0.414 -0.428,-0.34 0.206,-0.165 0.575,-0.086 0.124,-0.356 -0.088,-0.357 0.374,-0.014 0.174,-0.425 0.325,-0.414 0.738,0.008 0.456,0.573 0.181,0.327 -0.367,0.304 -0.368,0.072 -0.012,0.137 0.176,0.107 0.45,-0.182 0.194,0.328 -0.163,0.261 0.237,0.437 z m 13.676,3.71 -0.433,-0.299 -0.904,-0.319 0.705,1.849 0.178,0.65 0.01,0.715 -0.196,0.528 -0.272,0.512 -0.207,0.64 -0.022,0.32 0.29,2.022 -0.013,0.527 -0.197,0.453 -0.789,0.311 L 11.14,11.068 10.89,10.075 11.423,9.074 8.295,7.292 7.706,7.365 7.754,6.494 7.965,5.566 8.437,4.753 9.266,4.208 V 3.869 L 8.437,3.927 7.837,4.222 7.252,4.604 6.519,4.915 6.061,4.924 4.39,4.578 3.808,4.33 3.129,3.887 2.54,3.312 2.253,2.687 2.391,1.65 2.91,0.867 3.546,0.168 4.055,-0.624 4.764,-0.043 6.366,0.668 6.823,1.234 7.434,0.862 7.194,-0.096 7.173,-0.943 6.856,-1.543 5.744,-1.769 5.465,-2.054 5.439,-2.682 l 0.2,-0.626 0.411,-0.285 1.384,0.71 -0.225,-0.796 -0.036,-0.648 0.239,-0.482 0.632,-0.3 -1.525,-1.11 0.973,0.067 3.234,1.003 0.697,0.615 -0.37,0.418 -0.735,0.306 -0.53,0.408 0.251,0.705 0.774,0.902 0.138,0.412 0.138,0.759 0.509,-0.368 0.839,-0.443 0.781,-0.269 0.342,0.135 -0.121,0.842 -0.577,1.231 -0.247,0.73 0.607,-0.256 0.392,0.38 0.199,0.684 0.052,0.645 -0.044,0.917 z m 3.666,9.507 -0.513,-0.054 -0.472,-0.268 -0.124,-0.393 0.237,-0.431 0.152,-0.452 -0.054,-0.387 0.119,-0.279 0.338,-0.354 0.219,-0.954 0.109,-0.238 0.229,0.078 0.294,0.404 0.196,1.127 0.022,1.38 -0.305,0.687 z m 19.571,14.003 -1.268,0.449 -0.974,0.965 -0.3,1.518 -1.024,0.8 -2.298,1.267 -1.929,2.208 -1.158,0.881 -2.75,0.422 -0.669,1.354 1.116,2.254 -0.189,2.183 -1.25,-0.419 -1.316,0.62 -1.716,0.426 -1.615,-0.664 -0.512,-0.662 -0.614,-0.531 -0.646,-0.085 -0.641,-0.238 -1.454,-1.155 -1.665,0.048 -1.394,0.735 -1.459,0.447 -1.669,-0.3 -1.62,-0.182 -1.398,0.885 -1.126,1.376 -0.369,3.037 -1.029,-0.797 -1.103,-1.575 -1.223,0.249 -2.39,-1.228 -1.269,0.255 -1.144,0.859 -1.209,0.582 -1.287,0.216 -1.348,-0.191 -2.754,0.117 -0.702,2.538 0.535,1.239 0.028,1.297 -0.595,0.701 -0.688,0.426 -0.152,0.474 -0.249,0.513 -0.988,0.7 -0.594,1.131 -0.85,0.925 -1.153,0.39 -1.265,-0.012 -1.282,0.1 -0.725,0.489 -0.586,0.492 -1.352,0.105 -0.364,0.123 -0.361,0.164 -0.179,0.445 -0.038,0.435 -0.41,0.35 -0.415,0.314 -0.905,0.526 -0.359,1.225 -1.634,-1.755 -0.434,-1.158 -2.22,-1.18 -1.097,-0.338 -0.61,0.065 -0.438,-0.282 -0.84,-1.819 -0.964,-1.009 -1.02,-0.906 -0.498,-1.441 -0.129,-1.69 -0.563,-1.233 -0.693,-1.295 -0.521,-1.656 -0.383,-1.711 -0.622,-1.273 -0.047,-1.381 1.145,-0.484 0.166,-0.606 0.083,-0.693 0.493,-1.291 -0.078,-1.403 0.457,-1.035 0.641,-0.428 -0.267,-1.503 -1.864,-2.233 -0.296,-1.465 -0.064,-1.349 -0.937,-0.958 -0.24,-1.193 0.918,-1.084 0.448,-1.399 0.189,-2.903 0.604,-1.086 1.099,-0.801 0.996,-1.047 0.388,-1.153 0.48,-1.006 2.782,-3.033 0.6,-1.479 -0.005,-1.013 0.113,-0.241 0.002,-0.001 0.465,-0.126 0.664,-0.549 0.273,0.256 0.352,0.04 0.426,-0.108 0.475,-0.188 1.192,0.106 0.934,0.838 0.48,1.388 0.131,1.756 0.501,-0.388 0.283,-0.534 0.469,-1.309 1.155,0.731 1.21,-0.026 0.556,0.377 -0.818,1.93 1.073,0.093 0.708,0.732 0.574,0.976 0.697,0.837 -0.054,-0.668 -0.196,-0.523 -0.229,-0.399 -0.13,-0.302 -0.074,-0.651 0.074,-4.038 -0.074,-0.366 -0.112,-0.41 -0.022,-0.428 0.208,-0.436 0.37,-0.202 1.05,-0.09 0.643,-0.149 0.497,0.091 0.207,-0.054 0.048,-0.21 0.011,-0.797 0.095,-0.295 0.817,-0.456 2.074,0.092 0.945,-0.159 -0.022,0.807 0.091,0.835 0.247,0.658 0.447,0.27 1.014,-0.104 0.494,-0.317 0.944,-1.272 1.036,0.066 0.734,1.418 0.73,0.723 L -3.582,4.915 -4.61,4.516 -5.068,4.229 -4.978,3.78 -4.338,2.891 -3.76,2.66 -0.988,2.348 -1.21,1.982 -1.576,1.916 -2.438,1.904 -2.46,1.072 -1.119,0.982 -0.12,1.283 1.007,2.753 1.628,3.869 1.024,4.578 0.887,4.042 0.578,3.608 0.186,3.478 -0.225,3.869 0.109,6.098 0.167,7.232 0.153,7.641 0.109,7.924 -0.192,8.39 -0.596,8.625 -0.803,8.882 -0.501,9.414 0.076,9.175 0.948,9.135 1.82,9.281 l 0.571,0.32 0.36,0.724 -0.091,0.626 -0.269,0.703 -0.153,0.959 -0.756,-0.051 -4.454,-2.37 v 0.371 l 0.476,0.493 0.088,0.749 0.228,0.69 1.755,0.48 1.529,0.772 0.83,0.166 -0.517,0.729 -0.029,0.383 0.403,0.201 1.48,0.282 0.675,-0.043 2.408,-0.85 0.306,-0.249 0.429,-0.453 0.148,-0.35 0.023,-0.365 0.134,-0.288 0.476,-0.111 0.904,0.003 0.393,0.103 0.393,0.263 -0.317,0.084 -0.552,0.239 -0.352,0.049 0.211,0.727 -0.11,0.505 -0.745,1.006 -0.381,0.658 -0.185,0.506 -0.317,1.444 -0.566,1.184 0.011,0.585 0.555,0.876 0.513,0.467 0.262,-0.151 0.446,-1.436 -0.174,-0.407 0.37,-1.096 -0.196,-0.77 0.898,0.359 0.61,-0.495 0.553,-0.8 0.708,-0.555 0.025,0.844 0.323,0.502 0.382,0.157 0.186,-0.197 v -2.388 l 0.686,0.532 0.534,-0.063 0.487,-0.913 1.039,-0.469 0.447,0.214 0.406,1.514 0.299,-0.531 0.169,-1.002 2.94,0.047 1.106,-0.128 0.315,1.308 0.388,0.865 0.297,-0.043 -0.042,-1.043 0.043,-1.108 0.617,0.043 1.363,2.406 0.405,0.596 0.213,-0.191 0.37,0.678 0.679,0.844 0.636,0.971 0.466,3.227 0.637,0.791 0.848,0.617 1.053,0.421 1.13,-0.044 0.877,-0.56 0.249,-1.199 0.799,-1.111 1.019,-0.825 0.808,-1.044 0.899,-0.918 0.088,-0.197 0.08,0.164 0.43,0.894 0.794,0.958 0.71,1.512 0.506,1.026 -0.015,0.306 -0.252,0.746 0.301,0.449 0.265,0.523 0.076,1.008 0.211,0.727 z m -53.219,-25.83 -0.261,0.36 -0.254,0.903 -0.103,0.654 -0.222,0.124 -0.228,0.216 -0.131,0.381 -0.429,-0.072 -0.523,-0.831 -0.262,-0.591 -0.235,0.161 -0.044,0.501 0.156,0.6 0.313,0.88 -0.23,0.602 -0.708,-0.193 -0.407,-0.524 -0.389,-0.745 -0.61,-0.791 -0.305,-0.838 0.392,-0.776 0.665,-0.404 0.647,-0.078 1.105,0.356 2.019,-0.533 0.473,0.119 -0.247,0.374 z m 9.065,-11.584 -0.203,0.021 -0.004,0.336 -1.413,0.755 -0.302,-0.074 -0.178,-0.173 -0.018,-0.296 -0.12,-0.247 -0.018,-0.272 0.196,-0.15 0.167,-0.037 0.196,-0.196 0.044,-0.282 -0.156,-0.346 0.043,-0.202 0.266,0.056 0.232,0.219 0.476,0.236 0.348,0.051 0.422,-0.095 0.287,0.042 0.193,0.128 0.429,0.53 0.065,0.29 -0.112,0.121 z m -9.512,10.061 -1.504,0.252 -1.035,-0.222 -1.098,-0.431 -0.864,-0.153 -0.538,0.963 -0.956,0.321 -0.381,0.265 -0.251,0.496 -0.207,0.953 -0.182,0.376 1.003,1.049 0.393,0.685 0.061,0.715 -0.345,0.68 -0.592,0.53 -0.676,0.209 -0.589,-0.286 -0.715,-0.561 -0.262,-0.344 -0.21,-1.203 -0.27,-0.181 -0.348,-0.064 -0.341,-0.251 -0.513,-0.978 -0.12,-0.957 0.163,-0.969 1.233,-4.015 0.097,-0.69 0.011,-0.476 0.065,-0.402 0.277,-0.489 0.407,-0.267 0.668,-0.23 0.633,0.02 0.272,0.477 0.149,1.134 0.396,0.916 0.585,0.405 0.733,-0.398 0.502,-2.195 0.444,-1.052 0.726,0.097 0.828,0.384 0.706,-0.309 0.653,-0.394 0.687,0.128 0.185,0.553 -0.378,1.103 0.356,0.201 0.255,0.279 0.036,0.641 -0.124,1.121 0.131,0.71 0.247,0.577 0.131,0.545 -0.228,0.617 z m 7.845,-1.097 0.134,0.166 -0.033,0.384 0.226,0.119 h 0.479 l 0.178,0.292 -0.251,0.423 -0.668,0.748 -0.563,0.131 -0.6,-0.454 -0.305,-0.5 -0.054,-0.294 0.283,-0.425 0.49,-0.342 0.262,-0.129 z"
       style="fill:#878787;fill-opacity:1;fill-rule:nonzero;stroke:#f9f9f9;stroke-width:0.25;stroke-linecap:round;stroke-linejoin:round;stroke-miterlimit:4;stroke-dasharray:none;stroke-opacity:1"
       transform="matrix(1.3333333,0,0,-1.3333333,523.37627,443.27213)" />
    <path
       id="path11"
       d="M 0,0 -0.087,0.537 -0.516,1.024 -1.072,1.464 -1.683,1.981 -1.966,2.298 -2.18,2.67 -2.231,2.865 -2.369,3.899 -2.435,4.138 -2.543,4.31 -2.71,4.404 -2.969,4.34 -3.219,4.128 -3.437,3.839 -3.575,3.565 -3.83,2.504 -4.015,2.057 -4.407,1.699 l 3.03,-2.365 0.904,0.056 z m 4.614,-21.95 -1.021,0.09 -0.788,-0.421 -0.367,-0.511 -0.084,-0.726 0.102,-0.707 0.291,-0.183 0.366,0.037 0.345,-0.256 0.506,0.124 0.389,0.456 0.036,0.344 0.185,0.37 0.48,0.165 0.196,0.232 -0.174,0.678 z M 7.06,-1.902 6.809,-1.299 6.562,-0.996 6.707,-0.523 6.562,1.506 6.467,1.924 6.053,2.686 5.951,3.067 6.002,3.407 6.234,4.172 6.285,4.627 6.057,5.535 5.486,6.109 4.051,6.833 3.375,7.454 2.703,8.252 1.991,8.767 1.177,8.556 0.123,7.33 -0.309,7.167 -0.494,6.558 -0.451,3.883 -0.614,3.276 -0.516,2.815 1.075,-0.225 1.304,-0.532 1.555,-0.705 1.605,-0.978 1.228,-1.572 0.901,-1.79 l -1.374,-0.36 0.916,-1.227 0.872,-0.408 2.347,0.128 0.171,0.106 0.185,0.19 0.24,0.085 0.338,-0.206 0.468,-0.509 0.269,-0.124 0.342,0.039 0.447,0.392 0.501,1.188 0.578,0.346 z m 29.163,-6.035 -0.623,-0.315 -0.678,-0.451 0.014,-1.018 0.36,-0.404 -0.766,-1.047 -0.425,-0.735 -1.158,-0.689 -1.273,-0.297 -1.311,-0.659 -0.512,1.177 -1.117,-0.259 -1.107,-0.345 -0.785,-0.451 -0.816,-0.133 -1.915,0.065 -1.311,1.725 -1.292,0.389 -0.89,0.587 -0.236,1.615 -0.885,1.265 -1.057,1.294 0.669,1.439 1.25,-0.08 1.431,-0.873 1.061,0.361 0.946,0.576 0.074,0.97 0.258,0.894 2.003,0.192 1.029,1.311 0.627,1.332 0.891,0.954 1.393,0.334 1.606,-0.131 0.766,-1.321 0.295,-1.794 0.467,-1.254 0.027,-1.376 -0.411,-1.595 1.223,0.015 1.048,0.378 0.909,0.013 0.341,-0.819 z m 28.023,-0.251 -0.665,0.569 -1.061,0.118 -1.089,0.414 -1.504,0.202 -2.51,1.391 -1.131,0.463 -1.121,0.739 -1.232,0.19 -1.195,-0.378 -0.992,0.838 0.078,0.913 0.47,0.958 0.185,1.111 0.014,1.144 -1.181,-0.382 -0.531,0.688 1.302,1.531 -0.218,1.02 -0.359,1.014 0.258,0.769 -0.014,0.919 -0.087,0.871 2.265,1.674 0.918,0.3 0.512,0.788 0.231,2.294 -1.056,1.623 -0.868,0.177 -0.826,0.381 -0.623,1.674 -0.987,0.049 -1.057,-0.07 -1.153,0.844 -0.55,1.499 -0.226,2.666 -0.429,1.343 -0.3,0.26 -0.35,-0.059 -0.236,-0.229 -0.295,-0.042 -0.761,0.539 -1.865,-0.661 -1.712,0.416 -0.691,0.423 -0.707,0.638 -0.022,1.071 0.346,1.008 0.253,0.384 0.18,0.368 -0.295,0.249 -0.379,0.09 -0.359,-0.076 -0.314,-0.243 -0.591,-0.769 -0.659,-0.67 -1.016,-0.174 -0.895,0.61 -0.166,0.554 -0.069,0.561 -0.323,0.199 -0.342,-0.361 -0.115,-0.578 -0.009,-1.868 -0.582,-0.911 -1.638,0.776 -1.5,1.358 -0.526,0.554 -0.553,-0.071 -0.494,0.719 -0.309,0.936 -0.406,0.491 -0.485,0.389 -0.373,0.892 -0.665,0.424 -1.573,1.001 -0.885,0.435 -0.55,-0.703 -0.607,-1.505 -0.907,-2.247 -0.736,-0.852 -1.721,-1.337 -0.78,-0.794 -3.813,-5.839 -1.777,-1.42 -1.151,-0.439 -0.826,-0.09 -0.537,-0.394 -0.236,-1.348 0.31,-4.864 0.001,10e-4 0.676,0.462 0.44,0.062 0.334,-0.42 L 13.784,8.158 13.581,7.024 13.632,6.379 V 6.378 L 13.668,5.896 14.09,5.011 14.279,4.165 14.057,2.966 13.309,0.964 l 2.572,-1.859 0.839,-0.87 -1.079,0.067 -1.737,0.732 -1.369,1.15 0.018,1.322 0.243,0.73 0.065,1.068 -0.087,1.041 -0.221,0.666 -0.596,0.4 L 11.375,5.296 10.722,4.988 9.937,4.818 7.477,5.7 6.885,5.59 6.71,4.827 7.354,0.188 l 0.479,-1.776 0.184,-1.137 0.01,-0.76 0.51,-0.5 0.461,-0.789 0.395,-0.654 0.349,-0.833 0.217,-0.495 2.034,0.072 2.289,0.081 2.631,-2.53 -0.005,-1.329 0.48,-1.103 0.72,-0.473 0.424,-0.697 -0.42,-1.386 -0.636,-1.232 -0.586,-0.434 -0.333,-0.245 -1.407,-0.412 -0.588,-0.595 -0.866,-1.26 0.103,-0.648 1.943,-1.478 1.399,-0.443 0.845,-0.169 0.535,-0.03 0.538,0.171 0.667,-0.122 0.283,-0.427 0.62,0.023 0.418,-0.123 0.346,-0.229 0.272,-0.34 0.21,-0.459 -0.984,-0.144 -0.698,0.423 -0.617,0.086 -0.752,-1.127 -0.222,-1.203 -0.218,-0.527 -0.468,-0.185 -0.426,0.212 -0.218,0.471 -0.054,0.607 0.054,0.625 -0.686,-0.338 -0.585,0.19 -0.592,0.367 -0.709,0.196 -0.868,-0.224 -0.495,-0.027 -0.326,0.251 -0.284,-0.269 -0.127,-0.089 -0.2,-0.057 0.36,-0.699 0.298,-0.752 0.312,-0.603 0.396,-0.244 1.195,0.167 0.143,-0.192 -0.542,-0.741 -0.451,-0.253 -0.621,-0.212 -0.545,-0.322 -0.239,-0.568 0.141,-0.766 0.414,-0.129 1.301,0.3 -0.658,-0.93 -0.272,-0.501 -0.018,-0.515 0.29,-0.287 0.48,-0.016 0.516,0.184 0.411,0.329 1.591,1.727 0.861,0.616 1.061,0.542 -0.004,-0.684 0.229,-0.442 0.425,-0.251 0.578,-0.118 0.927,0.804 0.621,0.34 0.275,-0.203 -0.068,-1.037 -0.251,-0.374 -1.206,-0.328 -1.13,-0.018 -0.761,-0.291 -0.71,-0.343 -0.617,-0.848 -0.517,-0.949 0.087,-0.959 -0.162,-0.754 0.194,-0.556 -0.014,-0.634 2.056,-0.619 0.862,0.22 0.853,0.178 0.422,-0.423 0.425,0.225 0.207,0.976 0.08,0.9 0.24,0.89 0.388,0.517 0.506,-0.227 -0.327,-1.477 0.443,-1.087 0.61,-0.949 0.189,-1.065 -0.385,0.3 -0.436,0.15 -0.476,0.027 -0.502,-0.066 0.422,-0.323 0.185,-0.088 v -0.348 l -2.673,-0.295 0.603,-1.493 1.584,-1.559 1.754,-1.026 1.479,-0.207 1.04,0.341 0.323,0.391 -0.142,1.728 0.404,0.571 2.67,0.75 -0.117,-0.648 -0.294,-0.195 -0.396,-0.06 -0.621,-0.345 -0.229,0.009 -0.24,-0.03 -0.24,-0.225 0.08,-0.116 0.414,-0.438 0.088,-0.242 -0.305,-1.354 -0.484,-0.546 -0.672,-0.317 -0.57,-0.436 0.014,-0.003 2.081,-0.429 1.749,-10e-4 3.71,1.589 1.928,-0.881 1.726,-1.451 2.109,-0.285 2.002,0.588 1.897,0.915 1.486,0.499 0.401,1.644 0.729,0.791 1.145,0.495 0.539,0.7 0.369,0.929 0.693,0.736 0.872,-0.183 0.254,-0.337 1.121,0.784 2.132,3.97 0.216,0.475 0.259,0.437 0.346,0.28 0.36,0.251 0.36,0.541 0.314,0.596 2.422,4.49 1.984,4.881 2.75,5.876 0.342,1.261 -0.259,1.264 0.586,1.023 0.826,1.008 0.886,0.368 0.466,1.002 z m -53.833,-15.097 -0.236,0.237 -0.851,0.357 -0.523,0.301 -0.185,0.44 0.131,0.487 -0.142,0.046 -0.628,-0.553 -0.734,0.356 -0.099,-0.114 0.324,-0.372 0.33,-0.575 0.24,-0.829 -0.018,-0.671 -0.582,-0.664 0.204,-0.326 -0.065,-0.379 -0.487,-0.661 -0.011,-0.283 1.036,0.13 2.278,1.818 0.236,0.516 -0.11,0.479 z m -21.742,-0.351 -0.319,0.262 -0.313,0.532 -0.359,0.249 -0.327,-0.455 -0.251,-0.757 -0.138,-0.918 -0.004,-0.2 0.186,-0.064 0.315,0.178 0.12,0.037 0.116,-0.286 0.291,-0.506 0.444,-0.204 0.523,0.081 0.403,0.17 0.567,0.58 0.185,0.347 -0.338,0.374 z m -62.972,33.673 -0.326,0.037 -0.226,-0.18 -0.48,-0.501 -0.751,-0.601 -0.135,-0.443 0.356,-0.465 0.145,-0.276 -0.007,-0.073 v -0.15 l 0.12,0.044 0.229,0.239 0.294,0.105 0.349,-0.029 0.331,0.181 0.181,0.488 0.138,0.579 0.2,0.507 -0.061,0.354 z m -0.515,8.023 -2.478,-0.872 -1.134,0.406 -0.465,-2.005 1.359,-1.163 1.824,-0.256 0.912,0.719 -0.244,0.216 -0.523,0.095 -0.436,0.219 -0.018,0.594 0.236,0.113 1.137,0.099 0.869,-0.525 0.617,0.454 0.073,0.829 -0.491,0.611 z M -2.791,5.254 -1.999,5.939 -1.704,6.941 -2.118,7.41 -2.936,7.539 -3.815,7.525 -4.651,8.036 -5.367,8.22 -5.995,8.049 -6.544,7.516 -7.056,5.958 -7.154,5.765 l 0.178,-0.614 0.432,0.012 0.502,0.266 0.41,0.161 1.861,-0.4 z m -28.125,-4.685 -0.349,-0.055 -0.054,-0.487 0.24,-0.697 0.145,-0.312 0.258,0.124 0.425,0.422 0.138,0.613 -0.312,0.328 z"
       style="fill:#878787;fill-opacity:1;fill-rule:nonzero;stroke:#f9f9f9;stroke-width:0.25;stroke-linecap:round;stroke-linejoin:round;stroke-miterlimit:4;stroke-dasharray:none;stroke-opacity:1"
       transform="matrix(1.3333333,0,0,-1.3333333,400.91147,232.89973)" />
    <path
       id="path12"
       d="M 0,0 -0.817,0.81 -0.956,1.271 -1.199,1.602 -1.341,1.998 -1.464,2.854 -1.878,3.897 -2.409,4.524 -2.888,4.851 -3.401,5.02 -4.186,4.94 -4.443,4.881 -4.923,4.649 -5.275,4.128 -5.454,3.446 -5.49,2.764 -5.446,2.095 -5.315,1.507 -5.003,1.111 -4.48,0.768 l 0.582,-0.161 0.464,0.122 0.386,-0.104 0.109,-0.398 -0.415,-0.317 0.008,-0.349 0.839,-0.295 0.676,-0.159 0.392,-0.18 0.214,0.126 0.044,0.316 0.189,0.037 0.342,-0.221 0.4,-0.174 0.217,-0.062 0.219,-0.031 0.152,0.145 -0.251,0.603 z M 3.404,6.645 3.194,6.969 2.638,7.065 1.711,6.846 0.829,6.356 0.2,5.524 -0.109,4.842 -0.316,4.524 -0.479,4.203 -0.283,4.003 -0.065,3.987 0.149,3.829 0.244,3.357 0.236,2.799 0.527,2.46 0.767,2.629 0.897,3.21 1.312,3.768 2.489,4.317 2.714,4.649 3.096,4.744 4.011,4.463 4.338,4.518 4.298,4.848 4,5.282 3.659,5.665 3.245,5.918 3.208,6.048 3.441,6.288 Z m -7.506,-15.067 -0.454,0.672 0.076,0.41 0.425,0.367 -0.105,0.528 -0.756,0.388 -0.381,0.004 -0.022,-0.184 -0.371,-0.356 0.087,-0.248 0.295,-0.274 -0.098,-0.695 -0.284,-1.244 0.098,-0.724 0.229,-0.051 0.215,-0.171 0.08,-0.25 0.229,-0.136 0.439,0.12 0.225,0.424 v 0.544 l 0.066,0.32 0.196,0.032 0.142,0.162 -0.153,0.263 z m -2.674,3.503 -0.232,0.174 -0.48,0.25 -0.93,0.158 -0.346,0.187 -0.352,0.114 -0.149,-0.129 0.229,-0.376 0.029,-0.154 -0.105,-0.117 -0.164,-0.081 -0.036,-0.119 0.087,-0.129 -0.018,-0.165 -0.131,-0.241 -0.229,-0.646 0.044,-0.18 0.21,-0.044 0.189,-0.068 0.088,-0.217 0.352,-0.33 0.679,-0.185 0.226,0.19 -0.218,0.386 0.36,0.075 0.65,0.035 0.156,0.615 0.309,0.261 -0.036,0.472 z M 4.015,-0.037 4.24,0.161 4.654,0.238 5.04,0.163 5.319,0.471 5.363,0.848 5.432,1.032 5.69,1.336 5.777,1.731 5.384,1.963 4.752,2.116 4.254,2.169 4.065,2.134 3.877,2.121 3.553,2.207 3.292,2.407 2.837,2.293 2.234,1.8 1.74,1.593 1.333,1.784 0.981,1.839 0.817,1.76 0.621,1.646 0.174,1.514 -0.283,1.454 -0.222,1.271 0.767,0.834 0.937,0.722 1.108,0.634 1.537,0.63 2.071,0.818 2.529,0.887 2.874,0.739 3.114,0.412 3.205,-0.004 3.423,-0.316 3.826,-0.232 Z m -22.479,12.428 -0.04,0.469 -1.01,-0.637 -0.204,-0.066 -0.298,0.24 -0.214,0.373 -0.131,0.341 -0.109,0.153 -0.476,0.252 -0.639,0.509 -0.738,0.404 -0.723,-0.053 -0.298,-0.45 1.148,-0.906 0.342,-0.678 -0.272,-0.824 -0.633,-0.417 -0.708,0.073 -0.523,0.643 -0.124,-0.767 -0.323,-0.24 -0.425,-0.073 -0.48,-0.264 -0.414,-0.463 -0.262,-0.417 -0.403,-1.17 -1.246,-0.093 -1.272,-1.463 -0.556,-1.807 0.937,-1.108 v 1.145 l 1.287,-0.81 0.24,-0.335 -0.128,-0.277 -0.33,-0.33 -0.251,-0.397 0.098,-0.47 0.519,-0.132 1.879,0.158 0.513,0.176 4.25,2.32 0.182,0.867 v 0.34 l 0.352,-0.221 0.763,-0.722 0.077,-0.167 0.443,0.299 0.356,0.573 0.879,1.885 0.24,0.806 0.12,0.833 -0.069,0.745 z m 11.099,-19.983 -0.254,0.072 -0.502,0.009 -0.37,-0.114 -0.261,0.033 -0.883,0.565 h -0.68 l -0.792,-0.554 -0.393,-0.801 0.033,-0.817 0.476,-0.632 0.854,-0.037 0.672,0.406 0.444,0.401 0.498,0.338 0.152,0.29 0.24,0.235 0.418,0.011 0.406,-0.224 0.168,-0.066 0.079,0.211 0.16,-0.026 0.186,-0.169 0.109,0.239 -0.371,0.465 z M 6.493,-6.023 6.042,-5.378 5.279,-5.183 4.644,-5.497 4.327,-5.8 4.153,-6.208 4.08,-6.723 3.804,-7.282 l 0.182,-0.83 0.167,-0.099 0.152,0.27 0.295,0.035 0.403,-0.365 0.491,-0.253 0.664,0.056 0.524,0.283 0.283,0.503 0.109,0.29 0.116,0.676 -0.269,0.303 z m -35.944,21.213 -0.084,0.276 -0.102,0.101 -0.032,0.473 -0.549,0.309 -0.324,0.338 -0.544,0.439 -0.338,-0.254 0.283,-0.912 0.447,-0.717 0.218,-0.543 -0.221,-0.529 -0.509,-0.391 -0.647,-0.02 -0.618,-0.095 -0.239,-0.286 0.992,-0.221 0.043,-0.185 -0.265,-0.203 -0.226,-0.227 -0.272,-0.014 -0.258,-0.09 0.16,-0.278 0.516,-0.149 0.487,0.074 0.879,0.523 0.374,0.355 0.36,0.266 0.251,0.272 0.04,0.523 0.138,0.602 z m 38.493,30.489 -2.755,0.44 -2.432,1.46 -1.223,2.689 0.965,0.913 1.601,-0.426 1.172,0.267 1.222,0.368 2.303,-0.866 0.904,-2.499 z m 37.324,-10.281 0.005,1.013 -0.6,1.479 -2.783,3.033 -0.479,1.006 -0.388,1.153 -0.996,1.047 -1.099,0.801 -0.604,1.086 -0.19,2.903 -0.447,1.399 -0.918,1.084 0.239,1.193 -2.546,2.055 -2.857,1.035 -1.62,-0.904 -1.3,-1.402 -1.399,-0.195 -1.481,-0.012 -1.619,-0.217 -1.643,0.029 -0.762,0.446 -0.678,0.524 -0.784,-0.201 -0.928,0.013 -1.347,-0.223 -1.283,-0.769 -1.661,0.247 -1.075,1.146 0.06,1.811 -0.909,1.027 -0.272,1.016 0.396,1.58 -0.899,1.372 L 12.184,60.901 11.861,60.338 11.422,59.916 11.136,59.191 11.03,58.41 9.65,58.393 7.556,61.235 6.19,62.355 5.41,62.687 4.598,62.744 3.855,61.861 2.341,62.01 1.22,61.002 1.216,60.261 1.257,59.52 0.847,58.896 0.284,58.482 0.316,57.897 0.403,57.338 0.03,56.563 -0.561,56.049 -1.29,55.697 l -0.766,-0.223 -0.646,-0.393 -0.6,-0.444 -1.495,-0.224 -1.416,-0.515 -1.329,-0.333 -1.112,0.374 0.065,1.484 0.285,1.473 0.259,2.003 -1.288,0.347 -4.337,-1.212 -0.923,-0.298 -0.007,-0.002 0.855,-0.974 0.109,-0.401 -0.399,-0.026 -0.789,0.24 -0.654,0.851 -0.261,0.271 -0.981,-1.499 -0.389,-0.842 -0.153,-0.852 0.076,-0.378 0.143,-0.346 0.072,-0.358 -0.153,-0.414 -0.29,-0.316 -0.287,-0.222 -0.262,-0.289 -0.218,-0.494 0.349,-0.069 0.164,-0.109 0.141,-0.125 0.265,-0.103 -0.81,-0.197 -0.927,-0.052 -0.817,-0.188 -0.497,-0.616 1.271,0.015 0.592,0.096 0.575,0.226 -0.088,-0.755 0.229,-0.434 0.472,-0.334 -0.098,-0.505 -0.21,-0.295 -0.208,-0.224 -0.097,-0.267 0.337,-0.789 1.464,-1.714 0.458,-1.225 0.295,-0.3 0.356,-0.2 0.839,-0.211 0.218,-0.349 0.022,-0.973 -0.117,-0.865 -1.126,-2.554 -0.476,0.491 -0.32,0.556 -0.072,0.599 0.258,0.622 -0.338,0.192 -0.752,0.028 -0.433,0.152 -0.534,0.32 -0.163,0.177 -0.044,0.31 -0.178,0.718 -0.138,0.094 -0.207,-0.078 h -0.178 l -0.088,0.324 0.055,0.316 0.2,0.51 0.12,1.009 -0.058,0.524 -0.317,0.622 -0.359,-1.248 -0.316,-0.627 -0.567,-0.364 -0.356,0.864 -0.81,0.416 -0.912,-0.123 -0.643,-0.748 0.16,-0.907 1.148,-1.527 -0.418,-0.582 0.632,-0.83 0.632,0.022 0.309,0.702 -0.353,1.225 0.854,-0.293 0.785,-0.72 1.272,-1.763 0.331,-1.143 -1.246,-1.239 0.134,-1.171 -1.115,0.237 -0.502,0.027 -0.513,-0.264 0.219,-0.492 0.276,-0.406 0.334,-0.339 0.393,-0.282 -0.186,-0.08 -0.425,-0.292 0.56,-0.37 0.781,-0.255 0.806,0.055 0.625,0.57 -0.014,0.51 -0.218,0.625 -0.066,0.531 0.436,0.225 0.338,0.122 0.24,0.271 0.298,0.258 0.509,0.093 1.115,-0.265 -0.262,-0.479 -0.843,-0.579 -0.621,-0.571 -0.087,-0.896 0.265,-1.066 0.487,-0.91 0.556,-0.439 -0.578,-0.509 -0.152,-0.401 0.12,-0.813 -0.018,-0.422 -0.077,-0.371 -0.185,-0.393 -0.331,-0.5 -0.912,-0.912 -0.32,-0.54 0.153,-0.577 0.469,-0.239 0.963,0.319 0.612,-0.011 0.074,0.561 0.378,0.179 1.188,-0.264 0.589,0.183 0.392,0.345 0.407,0.181 0.607,-0.309 -0.185,-0.288 -0.24,-0.567 -0.182,-0.29 0.28,-0.212 v -0.126 l 0.887,0.08 0.464,0.632 0.502,1.855 0.534,1.071 0.076,0.073 -0.065,0.492 -0.294,0.916 0.054,0.452 0.491,0.678 0.664,0.312 0.615,-0.186 L -7.79,31.133 -7.804,30.568 -8,30.236 -8.237,29.971 -8.4,29.611 v -0.566 l 0.116,-0.372 0.058,-0.359 -0.174,-0.526 2.318,0.208 1.014,-0.186 0.665,-0.765 -0.466,0.023 -0.37,-0.077 -0.691,-0.346 0.317,-0.691 -1.047,0.077 -2.045,0.614 -1.094,-0.273 -0.534,-0.699 -0.087,-0.955 0.196,-1.046 -0.207,0.079 -0.12,0.096 -0.109,0.11 -0.174,0.119 -0.687,-0.133 -2.042,1.506 -1.697,-0.759 -1.33,0.208 -0.626,-0.256 -0.638,-0.801 0.136,-0.516 1.032,-0.341 1.124,0.305 0.911,-0.592 1.32,0.086 1.112,-0.223 0.81,-0.385 1.461,-1.873 0.967,-0.707 -0.328,-0.405 1.341,-1.179 0.763,-0.484 0.941,-0.159 -0.934,-0.239 -1.287,0.411 -1.064,0.582 -0.826,0.476 -0.555,-0.121 0.935,-1.237 -0.194,-0.239 -0.473,0.311 -0.622,0.448 -0.484,0.469 -0.801,0.318 -0.582,0.38 -0.27,0.367 -0.465,0.301 -0.106,0.327 0.018,0.209 -0.01,0.219 0.117,0.706 -0.243,0.434 -1.871,0.409 -1.222,-0.121 0.258,-0.949 -0.34,-0.772 0.138,-1.356 0.28,-1.014 0.464,0.042 0.285,0.768 0.589,0.108 -0.158,-1.247 0.569,-0.569 0.433,-0.677 0.918,-0.2 0.266,-0.133 0.501,0.075 -0.363,-0.942 -0.512,-0.047 -0.949,0.656 -2.213,0.371 -0.555,0.333 -0.923,2.594 -0.145,0.597 -0.077,0.554 0.131,0.544 0.425,0.56 -1.362,2.043 -0.294,0.648 -0.262,0.178 -0.349,0.1 -0.334,0.033 -0.364,-0.177 -0.065,-0.424 0.036,-0.504 -0.047,-0.411 -0.469,-1.209 -0.389,-1.739 0.077,-1.563 0.926,-0.681 1.196,-0.587 0.185,-0.556 -0.324,-0.26 -0.446,0.007 -0.179,0.253 -0.173,-0.3 -0.182,-0.073 -0.077,-0.157 0.153,-0.545 0.116,-0.055 0.927,-0.887 0.283,-0.11 0.36,0.073 0.316,0.183 0.13,0.208 0.135,0.348 0.269,-0.263 0.221,-0.437 -0.014,-0.172 1.061,-0.522 0.382,-0.499 0.083,-0.86 0.658,0.26 0.523,0.093 0.955,0.017 0.436,-0.075 0.382,-0.013 0.396,0.088 0.153,0.49 0.185,0.371 0.272,0.247 0.302,-0.009 0.578,-0.357 0.37,-0.005 0.283,0.192 0.404,0.503 0.2,0.079 0.545,-0.302 -0.015,-0.507 -0.436,-0.579 -0.704,-0.493 0.421,-0.145 0.349,-0.226 0.276,-0.322 0.203,-0.418 -1.112,-0.026 -1.188,-0.23 -0.89,-0.657 -0.196,-1.307 0.716,0.237 0.08,-0.356 -0.167,-0.668 -0.019,-0.693 -0.101,-0.077 -0.131,-0.267 0.065,-0.293 0.48,-0.133 0.665,-0.079 0.327,-0.114 0.222,-0.176 0.17,-0.553 -0.12,-0.552 -0.632,-1.15 -0.192,-0.132 -0.201,0.066 -0.152,-0.029 -0.087,-0.851 -0.076,-0.216 -0.237,-0.312 V 2.141 l 1.167,0.059 0.563,-0.112 0.407,-0.35 0.083,-0.614 -0.421,-1.3 0.062,-0.637 0.516,-0.106 2.056,0.678 1.09,-0.234 V 0.15 l 0.091,0.524 1.086,3.652 0.178,0.351 0.498,0.42 1.322,0.335 0.349,0.235 0.229,0.535 0.007,0.403 0.12,0.249 0.589,0.088 0.218,-0.059 0.414,-0.251 0.273,-0.056 0.145,0.119 0.051,0.265 -0.044,0.265 -0.152,0.121 -0.665,0.263 0.643,0.593 1.711,0.994 -0.999,1.272 -0.178,0.661 1.377,0.461 -0.015,0.457 -0.283,0.652 -0.182,0.75 0.149,0.517 0.374,0.587 0.487,0.459 L 1.104,15.15 1.613,14.769 1.907,14.038 1.962,13.204 1.715,12.527 1.886,11.464 1.7,8.72 2.049,7.683 2.441,7.444 4.156,6.942 5.406,6.05 5.984,5.867 5.733,6.5 5.711,7.081 5.897,7.612 6.289,8.086 7.478,7.491 l 0.417,0.372 -0.08,2.239 2.463,2.425 -0.334,0.706 0.207,0.579 0.414,0.484 0.295,0.446 0.083,0.633 -0.022,0.599 0.077,0.448 0.338,0.174 0.545,0.143 0.567,0.331 0.883,0.674 1.634,0.956 0.36,0.305 0.807,1.066 0.49,0.451 0.527,0.186 1.119,-0.232 0.545,-0.029 0.643,0.261 0.625,0.765 0.901,2.318 0.632,0.995 1.101,-1.78 0.807,-0.674 0.974,0.413 0.846,0.661 0.316,-0.437 0.24,-0.968 0.622,-0.927 -0.35,-0.565 -0.61,-1.312 -0.29,-0.378 -0.691,-0.258 -0.512,0.168 -0.381,0.495 -0.269,0.709 0.236,0.516 -0.077,0.425 -0.305,0.331 -0.465,0.245 -1.286,-1.425 -0.24,-0.43 0.04,-0.823 0.265,-0.418 0.345,-0.359 0.262,-0.627 0.015,-1.602 -0.654,-0.905 -1.094,-0.399 -1.308,-0.086 0.654,1.584 0.218,0.879 0.043,0.905 -0.65,-0.318 -0.319,-0.402 -0.556,-1.17 -0.901,-1.194 -0.32,-0.284 -0.992,-0.589 -0.284,-0.464 0.055,-0.796 0.414,-0.778 0.6,-0.315 0.701,-0.137 0.727,-0.251 -0.127,0.216 -0.179,0.555 1.77,0.926 0.512,0.117 1.675,-1.814 0.629,-1.294 1.824,-2.413 1.235,0.007 -0.57,0.621 -0.135,0.944 1.286,0.977 0.818,-0.375 0.752,1.069 2.118,1.945 -0.929,0.792 -1.697,-0.443 -0.378,0.251 -0.625,0.137 -0.535,1.125 -0.105,0.173 0.258,0.414 0.61,0.437 0.719,0.331 0.578,0.11 0.654,-0.211 2.031,-1.267 0.552,0.139 0.872,-0.042 0.46,0.391 0.409,0.409 -0.127,1.13 -0.248,0.601 -1.918,0.74 0.334,0.075 0.785,-0.005 0.458,-0.07 -0.955,1.373 -1.395,0.897 -1.29,1.158 -0.622,2.161 0.124,0.146 0.24,0.062 0.094,0.19 -0.316,0.518 -0.447,0.192 -0.839,-0.338 -0.381,0.312 0.163,0.74 0.959,0.54 1.897,0.606 v 0.344 l -0.949,0.278 -1.152,0.504 -0.588,0.485 0.727,0.217 1.929,-0.049 0.886,0.11 1.523,0.539 0.229,0.026 0.152,0.106 0.294,0.412 0.764,1.94 0.152,0.121 0.098,0.227 0.208,-0.07 0.207,-0.238 0.097,-0.306 -0.043,-0.279 -0.197,-0.531 -0.039,-0.322 0.116,-0.531 0.676,-1.426 -0.131,-0.208 -0.077,-0.327 0.022,-0.278 0.219,-0.235 0.261,-0.039 0.251,-0.007 0.185,-0.119 0.708,-1.534 0.36,-0.51 0.207,-0.918 -0.421,-1.07 -0.582,-1.132 -0.272,-1.149 0.218,-1.215 0.512,-0.802 0.796,-0.439 1.068,-0.132 0.731,-0.768 0.461,-0.256 0.203,0.45 -0.327,2.425 -0.261,0.763 -0.349,0.716 0.222,0.058 0.061,0.099 0.066,0.016 0.261,-0.173 0.818,1.795 0.995,-0.212 1.243,-0.623 1.57,0.526 0.37,0.627 0.513,2.713 0.442,1.538 0.146,0.761 0.05,1.074 -0.838,-0.449 -0.763,0.048 -0.818,0.16 -0.959,-0.129 -1.384,-1.3 -0.556,-0.35 -0.469,0.226 -0.502,0.65 -0.708,0.456 -0.792,1.084 -0.691,1.245 -0.414,0.963 -0.05,0.91 0.239,1.091 0.487,0.695 0.698,-0.279 0.843,-1.719 0.672,-0.578 0.938,0.418 1.689,1.352 0.414,0.478 0.178,0.344 0.324,1.004 -0.099,0.286 -0.076,0.651 0.12,0.42 0.512,-0.408 0.262,-0.527 0.109,-0.415 0.24,-0.278 0.602,-0.101 1.81,0.017 0.293,-0.081 z M 33.306,8.7 32.896,8.679 32.492,8.277 32.285,8.225 32.274,8.365 31.649,8.524 31.315,8.718 30.999,8.854 30.781,8.731 30.857,8.489 30.886,8.185 30.727,7.779 31.024,7.557 31.511,7.246 31.392,7.03 l 0.207,-0.279 0.45,-0.146 0.302,-0.317 0.018,-0.463 0.254,-0.144 0.712,0.217 0.814,0.529 0.338,0.363 v 0.319 l -0.2,0.538 z m 12.19,2.001 -0.36,0.067 -0.021,0.194 0.079,0.379 -0.676,1.318 -0.581,0.433 -0.817,-0.111 -0.752,-0.359 -0.24,-0.463 0.316,-0.382 0.367,-0.198 0.218,-0.335 0.2,-0.461 0.436,-0.337 0.65,-0.218 0.414,-0.232 0.146,-0.218 0.094,-0.094 0.364,0.014 0.555,0.193 0.098,0.337 -0.195,0.31 z M 14.627,1.93 14.355,2.279 14.203,2.525 13.995,2.708 13.548,2.658 12.938,2.464 12.589,2.618 12.422,3.106 12.131,3.543 11.815,3.851 11.674,3.899 11.71,3.759 11.267,3.389 10.853,2.887 10.595,2.711 10.264,2.645 10.159,2.543 l 0.127,-0.085 0.29,-0.1 0.749,-0.07 0.298,-0.181 0.105,-0.272 -0.131,-0.216 0.978,-0.202 0.159,-0.216 -0.283,-0.189 -0.222,-0.336 0.044,-0.478 0.458,0.207 0.789,0.62 0.323,0.324 -0.273,0.156 -0.116,0.147 0.32,0.125 0.443,-0.098 0.378,-0.192 0.272,0.058 -0.087,0.253 z M 20.386,9.551 19.66,9.606 18.265,9.44 16.804,9.17 16.092,8.879 15.474,8.423 15.892,8.141 16.066,7.898 16.023,7.647 15.779,7.346 V 6.942 l 1.069,-0.717 0.523,-0.256 0.712,-0.102 1.842,0.34 0.825,0.339 0.588,0.824 0.145,1.006 -0.486,0.88 z m 4.215,-25.384 -0.262,0.232 -0.567,0.943 -0.076,0.556 0.153,0.5 -0.109,0.231 -0.066,-0.021 -0.119,-0.139 -0.208,-0.067 -0.163,0.055 -0.142,-0.046 -0.033,-0.224 0.022,-0.25 -0.065,-0.216 0.109,-0.368 0.138,-0.171 0.167,-0.119 0.098,-0.45 0.153,-0.368 0.109,-0.168 0.61,-0.142 0.632,-0.307 0.055,0.265 -0.117,0.184 z m -47.705,48.763 0.167,0.141 0.145,0.563 -0.01,0.234 -0.262,0.107 h -0.763 l -0.349,-0.191 -0.091,-0.518 0.222,-0.492 0.545,-0.017 z m -6.831,-9.354 0.408,-0.747 0.076,-0.464 0.316,-0.232 0.334,0.029 0.156,0.075 0.24,0.214 0.48,-0.006 0.414,-0.603 0.523,-0.52 0.567,0.055 0.258,0.519 -0.018,0.582 -0.153,0.475 -0.043,0.36 0.032,0.272 -0.16,0.299 -0.298,0.272 -0.436,0.106 -0.53,0.035 -0.393,0.199 -0.265,0.29 -0.417,0.186 -0.564,0.087 -0.476,-0.049 -0.33,-0.171 -0.353,0.003 -0.432,0.114 0.185,-0.451 z m 3.361,2.611 -0.109,0.225 -0.323,0.442 -0.429,0.191 -0.337,-0.279 -0.651,-0.284 -1.112,-0.183 -0.44,-0.369 0.549,-0.324 0.749,-0.278 0.581,-0.5 0.519,-0.296 0.535,0.141 0.269,0.288 -0.095,0.734 0.153,0.35 z m 5.533,4.806 -0.559,-0.173 -0.044,-0.229 -0.145,-0.152 -0.16,-0.203 -0.908,-0.332 -0.708,-0.047 -0.24,-0.285 0.272,-0.354 0.531,-0.182 0.661,0.107 0.585,0.288 1.319,0.214 0.185,-0.1 1.246,-0.686 0.117,-0.216 -0.142,-0.313 -0.283,-0.32 0.479,-0.182 0.876,0.81 -0.091,1.153 -0.846,0.299 -0.633,0.007 -0.287,0.09 -0.061,0.255 -0.026,0.321 0.084,0.253 0.679,0.452 0.389,0.051 0.058,0.321 -0.567,0.571 -0.796,0.403 -0.774,0.186 -0.486,-0.252 0.149,-0.539 0.349,-0.479 -0.022,-0.398 z m -9.104,-31.063 -0.298,0.152 -0.643,-0.1 -1.537,0.324 -0.335,-0.222 -0.021,-0.267 -0.189,-0.256 0.029,-0.295 0.312,-0.449 0.923,-0.384 0.283,0.042 0.077,0.267 0.152,0.007 0.186,-0.29 0.196,-0.093 0.251,0.209 0.432,0.056 0.211,0.309 -0.073,0.39 z m 0.65,29.567 -0.425,0.241 -0.534,-0.055 -0.654,-0.33 -0.135,-0.432 0.309,-0.567 0.374,-0.517 0.669,-0.762 -0.018,-0.217 0.098,-0.32 0.403,-0.033 0.476,0.269 0.145,0.518 -0.01,0.606 0.279,0.319 0.44,-0.02 0.316,0.198 0.109,0.513 -0.218,0.846 0.6,0.385 -0.047,0.337 -0.215,0.309 -0.221,0.124 -0.284,-0.028 -0.585,0.011 -0.425,-0.416 0.087,-0.638 -0.12,-0.328 z m 3.51,10.114 -0.044,0.281 -0.113,0.243 -0.189,0.256 -0.396,0.113 -0.57,-0.047 -0.389,0.18 -0.287,-0.044 -0.345,-0.229 -0.083,-0.247 0.193,-0.057 0.199,0.036 0.127,-0.072 -0.323,-0.246 0.062,-0.12 0.221,0.007 0.171,-0.087 0.065,-0.237 0.215,-0.023 0.24,0.12 0.181,-0.124 0.4,-0.443 0.24,-0.092 0.225,0.127 0.189,0.173 z m -1.036,3.019 0.48,-1.121 0.24,-0.295 0.254,-0.129 0.193,-0.175 0.192,-0.04 0.392,-0.038 0.255,-0.222 1.144,-0.193 0.306,-0.093 -0.084,-0.266 -0.007,-0.478 0.178,-0.321 0.218,-0.28 0.519,-0.12 0.116,-0.171 0.175,0.143 0.175,0.527 -0.08,0.417 -0.226,0.307 -0.134,0.483 -0.265,0.378 -0.465,0.032 -0.415,0.188 -0.49,0.506 v 0.291 l 0.174,0.202 0.411,0.026 0.308,0.313 -0.112,0.355 -0.276,-0.08 -0.218,-0.008 -0.095,0.24 -0.276,0.138 -0.428,-0.227 -0.378,-0.131 -0.418,0.279 -0.523,0.194 -0.567,-0.192 z m -6.888,-16.723 -0.164,0.159 -0.214,0.036 -0.298,-0.04 -1.461,-0.559 -0.799,-0.175 -0.607,0.234 -0.545,-0.212 -0.49,-0.319 -0.356,-0.477 -0.135,-0.677 0.077,-0.716 0.232,-0.577 0.385,-0.364 0.523,-0.063 0.531,0.241 0.389,0.48 0.239,0.642 0.091,0.729 0.247,0.142 0.56,-0.12 0.61,0.004 0.386,0.511 0.225,-0.133 0.508,-0.143 0.207,-0.095 -0.018,1.154 z m -0.153,-4.497 -0.534,0.485 -0.382,0.7 -0.167,0.111 -0.276,-0.142 -0.81,-1.114 -1.319,-0.53 -0.305,-0.42 0.403,-0.905 0.197,0.072 0.701,-0.298 0.646,-0.38 0.004,-0.17 0.458,-0.042 0.309,0.027 0.312,0.229 0.676,0.912 0.185,0.399 0.098,0.426 -0.058,0.416 z m 1.657,-7.321 0.468,0.031 0.404,0.137 0.123,0.636 -0.374,0.76 -0.476,0.696 -0.57,1.252 -0.375,-0.478 -0.159,-1.046 0.174,-1.882 0.36,-0.302 z m -40.896,-26.256 -0.393,0.486 -0.494,0.167 -0.341,-0.316 -0.218,-0.567 0.109,-0.419 0.497,-0.308 0.872,-0.802 0.219,-0.14 0.098,-0.055 0.196,-0.037 0.138,0.241 -0.044,0.427 z m 14.453,32.711 -0.381,-0.009 -0.149,0.394 -0.201,0.157 -0.366,-0.073 -0.375,-0.279 -0.323,-0.51 -0.298,-0.583 -0.247,-0.661 -0.047,-0.724 0.287,-0.777 0.436,-0.183 0.181,0.2 0.229,0.316 0.295,0.493 0.138,0.382 0.705,0.824 0.116,0.308 0.207,0.248 0.392,0.389 -0.087,0.221 z m 26.145,9.811 0.378,-0.136 0.29,-0.253 0.371,-0.142 0.643,0.193 0.52,0.45 0.341,0.65 0.139,0.76 -0.106,0.784 -0.352,0.613 -0.498,0.344 -0.436,-0.108 -0.193,-0.723 -0.167,-0.332 -0.371,-0.007 -0.425,0.118 -0.286,0.018 -0.611,-0.559 -0.803,-1.284 -0.439,-0.386 v -0.338 l 0.548,0.011 z m 1.41,10.355 0.108,-0.12 0.164,-0.122 0.425,0.069 1.188,-0.317 0.24,0.062 0.164,0.444 0.381,0.572 0.501,0.491 0.48,0.199 -0.599,0.971 -0.196,0.562 0.036,0.545 0.312,0.46 1.359,0.793 -0.683,0.185 -0.916,-0.218 -0.806,-0.524 -0.338,-0.741 -0.218,-0.352 -0.491,-0.239 -0.53,-0.178 -0.309,-0.178 -0.236,-0.506 -0.349,-1.731 0.196,-0.033 z"
       style="fill:#878787;fill-opacity:1;fill-rule:nonzero;stroke:#f9f9f9;stroke-width:0.25;stroke-linecap:round;stroke-linejoin:round;stroke-miterlimit:4;stroke-dasharray:none;stroke-opacity:1"
       transform="matrix(1.3333333,0,0,-1.3333333,423.72333,480.164)" />
    <path
       id="path13"
       d="m 0,0 3.942,-7.807 3.074,-8.183 0.502,-0.889 1.601,-1.986 0.614,-1.666 7.442,-10.656 2.887,-4.209 3.459,-3.838 0.492,-0.402 2.317,-2.73 0.12,-1.153 0.011,-1.385 0.276,-1.175 1.58,-0.88 0.458,-0.945 1.305,-4.252 0.581,-0.985 0.697,-0.419 0.585,-0.606 2.032,-3.999 1.22,-1.537 0.422,-0.845 0.163,-0.896 0.309,-0.868 2.155,-2.373 0.687,-1.945 0.61,-4.245 0.839,-2.334 2.289,-3.193 0.175,-0.669 -0.262,-0.647 -0.414,-0.616 -0.262,-0.604 -0.018,-0.541 0.323,-1.75 0.393,-4.991 0.414,-2.302 1.482,-4.7 0.12,-2.299 -0.465,-2.126 -1.007,-1.93 -0.817,-2.288 -0.447,0.019 -1.49,0.342 -1.431,-0.634 -3.092,1.143 0.494,1.324 -0.138,1.242 -0.392,1.377 -0.12,1.56 0.595,1.48 0.48,1.403 -0.351,0.415 -0.383,0.364 0.18,1.266 -3.271,0.246 -0.96,0.546 -1.025,0.439 -0.419,1.027 -0.329,1.188 -1.471,0.698 -0.918,1.391 -0.198,1.809 0.322,1.386 0.762,0.578 0.834,0.313 1.302,-0.515 1.057,0.791 -0.434,1.289 -1.393,0.841 -1.528,0.357 -1.213,-0.642 -1.167,-0.296 -1.648,0.757 -1.749,0.295 -0.591,-0.242 -0.489,0.061 -0.378,0.508 -0.545,0.226 -1.268,-0.989 -1.338,-0.526 -0.102,0.979 0.11,0.973 -0.775,0.386 -0.862,0.198 -0.628,1.103 -1.218,0.096 -1.214,-0.57 -0.811,-0.992 0.295,-1.376 -0.143,-1.285 -0.264,-1.194 -1.139,0.107 -1.333,0.287 -1.104,0.464 -1.143,0.608 -0.896,0.579 -0.904,0.393 -1.136,0.132 -1.162,0.23 -1.177,0.763 -1.061,0.805 -1.066,-0.007 -1.075,-0.344 -0.96,-0.17 -0.812,-0.061 -0.323,0.735 -0.886,0.922 0.079,0.798 -0.444,0.489 -2.127,-0.243 -1.356,-0.454 -0.406,-0.191 -0.397,0.009 -0.633,0.35 -0.489,0.552 0.767,1.189 1.287,0.918 0.516,1.18 -0.802,0.242 -2.547,0.402 -2.492,0.889 -1.034,-0.799 -0.88,-0.463 -1.067,0.224 -0.895,-0.692 -1.477,-0.824 -1.48,-0.359 -0.554,0.778 v 1.203 l -1.698,1.8 -2.276,-0.771 -0.843,-1.037 0.244,-2.722 -0.905,-0.621 -0.299,-0.366 -0.346,-0.302 -0.384,0.179 -0.378,0.236 -1.366,0.095 -1.356,-0.321 0.382,2.703 -4.747,-0.65 -4.716,-1.293 2.422,4.489 1.984,4.881 2.751,5.876 0.341,1.262 -0.258,1.264 0.586,1.023 0.826,1.007 0.886,0.368 0.465,1.002 -0.507,0.865 -0.665,0.569 -1.061,0.118 -1.089,0.414 -1.504,0.203 -2.51,1.391 -1.13,0.463 -1.122,0.738 -1.232,0.19 -1.195,-0.378 -0.992,0.839 0.079,0.912 0.47,0.959 0.184,1.11 0.015,1.144 -1.182,-0.382 -0.53,0.688 1.301,1.531 -0.217,1.021 -0.36,1.014 0.259,0.768 -0.015,0.92 -0.087,0.87 2.266,1.674 0.918,0.3 0.512,0.789 0.231,2.294 -1.057,1.622 -0.868,0.177 -0.826,0.382 -0.622,1.673 -0.988,0.05 -1.057,-0.07 -1.153,0.844 -0.549,1.498 -0.226,2.666 -0.43,1.344 -0.299,0.259 -0.351,-0.059 -0.235,-0.228 -0.296,-0.043 -0.761,0.539 -1.864,-0.66 -1.712,0.416 -0.692,0.422 -0.706,0.639 -0.023,1.07 0.346,1.008 0.254,0.385 0.18,0.368 -0.296,0.248 -0.378,0.091 -0.36,-0.077 -0.314,-0.243 -0.59,-0.769 -0.66,-0.67 -1.016,-0.174 -0.895,0.61 -0.166,0.554 -0.069,0.562 -0.323,0.198 -0.341,-0.361 -0.116,-0.578 -0.009,-1.868 -0.581,-0.911 -1.638,0.777 -1.5,1.357 -0.526,0.554 -0.554,-0.07 -0.493,0.719 -0.31,0.935 -0.406,0.492 -0.484,0.389 -0.374,0.892 -0.665,0.423 -1.573,1.002 -0.884,0.434 0.261,0.333 2.448,2.021 2.845,1.786 2.992,1.215 2.88,0.312 1.42,-0.151 5.505,0.482 4.234,-1.287 1.345,0.124 2.623,0.797 8.612,0.756 0.367,-0.25 0.571,-0.826 0.549,-0.556 0.613,-0.158 2.951,0.622 4.684,-0.273 3.041,0.241 3.063,1.094 2.852,1.847 2.376,2.495 1.034,1.481 0.862,1.582 0.582,1.759 0.194,2.024 -0.378,1.953 -0.097,0.996 0.281,0.738 1.218,0.967 2.524,1.313 1.334,-2.643 2.082,-4.125 0.414,-1.808 z"
       style="fill:#878787;fill-opacity:1;fill-rule:evenodd;stroke:#f9f9f9;stroke-width:0.25;stroke-linecap:round;stroke-linejoin:round;stroke-miterlimit:4;stroke-dasharray:none;stroke-opacity:1"
       transform="matrix(1.3333333,0,0,-1.3333333,525.54693,175.68293)" />
    <path
       id="path14"
       d="m 0,0 -0.697,-0.72 -0.337,0.1 -0.42,-0.037 0.023,-0.362 -0.059,-0.465 -0.42,-1.102 -0.005,-0.355 -0.134,-0.516 -0.997,-0.605 -2.579,0.672 -1.444,0.146 -0.637,-0.503 -0.637,-1.115 -0.342,-0.291 -0.41,0.339 -0.55,0.355 -0.789,0.641 -0.53,1.026 -0.65,0.641 -0.693,0.269 -0.267,1.018 0.618,0.864 0.669,0.005 0.721,0.117 0.188,0.522 0.083,0.549 -0.392,0.145 -0.424,0.07 0.479,1.083 0.767,0.844 -0.281,2.514 2.098,1.744 2.843,0.383 2.357,0.153 L -1.057,6.815 -0.489,5.826 -0.513,5.39 -0.729,5.022 -0.716,3.628 -0.355,3.087 0.124,2.679 0.217,1.804 0.239,0.871 Z m 36.521,10.633 -0.164,0.949 -0.736,0.586 -0.546,-0.915 -2.837,-3.109 -1.147,-0.9 -0.905,0.156 -0.713,0.872 -0.676,0.759 -0.942,0.874 0.041,0.756 0.745,0.615 0.439,0.143 0.466,0.226 0.359,0.485 0.167,0.863 -0.239,0.31 -0.36,0.252 -0.33,1.44 -0.258,1.88 -0.24,0.279 -0.298,0.203 -0.273,0.504 -0.152,0.907 0.188,6.691 0.237,1.097 0.538,0.94 1.38,1.672 0.272,1.018 0.276,4.738 -0.243,2.297 -0.61,2.279 -0.23,2.186 -0.01,0.093 -0.448,0.019 -1.49,0.342 -1.43,-0.634 -3.092,1.143 0.494,1.324 -0.139,1.243 -0.391,1.376 -0.12,1.56 0.594,1.48 0.481,1.403 -0.351,0.415 -0.384,0.364 0.181,1.267 -3.271,0.244 -0.96,0.547 -1.025,0.44 -0.42,1.026 -0.328,1.188 -1.472,0.698 -0.918,1.391 -0.198,1.809 0.322,1.387 0.762,0.577 0.835,0.313 1.302,-0.515 1.057,0.792 -0.434,1.288 -1.394,0.841 -1.527,0.357 -1.214,-0.642 -1.167,-0.296 -1.647,0.757 -1.749,0.295 -0.591,-0.242 -0.489,0.061 -0.378,0.507 -0.545,0.228 -1.269,-0.99 -1.338,-0.526 -0.101,0.979 0.11,0.973 -0.775,0.386 -0.863,0.198 -0.627,1.103 -1.218,0.096 -1.214,-0.57 -0.812,-0.992 0.295,-1.376 -0.143,-1.285 -0.263,-1.194 -1.14,0.107 -1.333,0.287 -1.103,0.464 -1.144,0.608 -0.545,-0.62 -0.604,-0.349 -0.53,0.205 -0.434,-0.278 -1.029,-1.091 -1.136,-0.951 -0.742,-0.721 -0.923,-0.29 -0.554,-0.462 -0.392,-0.712 -1.38,-0.98 -0.983,-1.406 -0.465,-1.05 -0.569,-1.041 0.315,-0.546 0.59,-0.545 -0.66,-2.188 -3.737,-1.573 -1.593,0.524 -0.664,1.347 -1.052,0.912 -0.743,0.53 -0.581,0.653 -0.582,-0.575 -0.466,-0.736 -0.221,-0.869 -0.314,-0.919 -1.287,0.101 -1.38,0.485 -0.72,0.466 -0.761,-0.492 -0.734,-0.989 -0.89,-0.076 -0.715,0.473 -0.54,-0.915 -0.559,-1.219 -0.3,-1.142 0.854,-1.103 0.65,-1.251 -3.165,0.503 -1.702,0.74 -0.97,-1.447 -1.559,-0.741 -1.389,-0.944 -0.115,-0.662 0.027,-0.518 -0.249,-0.568 -1.006,-1.352 -0.645,-0.693 -0.655,-0.119 -0.661,-0.308 0.503,-1.27 1.749,-0.297 2.187,-3.18 -0.812,-0.793 -0.443,-1.269 -0.18,-3.023 -0.267,-1.333 0.281,-0.955 0.494,-0.875 -0.641,-1.277 -0.988,-0.855 0.268,-2.631 1.795,0.423 1.079,-0.353 1.264,-1.057 0.868,-0.411 2.28,0.547 1.01,-0.746 0.508,-2.885 -0.951,0.058 -1.07,0.198 -1.08,-0.926 0.249,-1.485 0.009,-0.757 -0.097,-0.91 -0.429,-0.521 -0.346,-0.616 -0.373,-1.417 -0.693,-1.352 -1.121,-0.377 -1.084,-0.532 1.827,-3.123 -0.208,-3.511 0.36,-1.225 0.905,-0.526 0.415,-0.314 0.41,-0.349 0.037,-0.436 0.18,-0.445 0.36,-0.164 0.365,-0.122 1.352,-0.106 0.586,-0.492 0.724,-0.489 1.283,-0.1 1.265,0.012 1.153,-0.39 0.848,-0.925 0.596,-1.131 0.988,-0.7 0.249,-0.513 0.152,-0.474 0.687,-0.426 0.596,-0.701 -0.028,-1.297 -0.535,-1.239 0.701,-2.538 2.755,-0.116 1.347,0.19 1.287,-0.216 1.209,-0.582 1.145,-0.859 1.268,-0.255 2.391,1.228 1.223,-0.249 1.102,1.575 1.03,0.797 0.369,-3.037 1.126,-1.376 1.398,-0.885 1.619,0.182 1.671,0.299 1.458,-0.446 1.394,-0.734 1.665,-0.048 1.454,1.154 0.641,0.238 0.646,0.085 0.613,0.531 0.513,0.663 1.615,0.664 1.716,-0.427 1.315,-0.62 1.25,0.419 1.076,0.871 1.149,0.671 0.688,0.016 0.281,0.539 -0.429,0.71 -0.245,0.77 1.504,1.168 1.888,0.66 1.545,0.234 1.514,-0.318 1.573,-0.679 0.411,-0.676 0.023,-0.82 0.11,-0.732 0.554,-0.399 0.748,-0.194 4.152,0.751 3.536,-0.866 0.039,0.01 -0.343,0.411 -0.372,0.979 0.381,0.863 0.873,1.727 1.184,3.555 -0.064,2.048 1.157,3.274 0.478,3.772 0.123,1.435 1.609,3.204 0.697,1.092 -0.232,1.098 z m 59.317,83.147 -0.534,-0.11 -1.061,-0.392 -1.588,-0.27 -0.802,-0.536 -0.378,-0.857 0.232,-1.147 0.734,-0.885 1.105,-0.665 1.137,-0.221 0.85,0.428 0.52,1.057 0.494,1.591 0.055,1.43 z"
       style="fill:#878787;fill-opacity:1;fill-rule:nonzero;stroke:#f9f9f9;stroke-width:0.25;stroke-linecap:round;stroke-linejoin:round;stroke-miterlimit:4;stroke-dasharray:none;stroke-opacity:1"
       transform="matrix(1.3333333,0,0,-1.3333333,542.362,367.20707)" />
    <path
       id="path15"
       d="M 0,0 1.44,0.32 1.961,1.078 2.584,0.923 2.505,0.291 3.055,0.009 3.133,-0.982 3.595,-2.458 3.377,-3.76 2.792,-4.702 2.146,-7.097 0.979,-8.041 0.337,-8.258 l -0.997,0.581 -1.458,0.726 -0.586,1.088 -0.411,1.959 -0.701,1.306 -0.351,1.524 0.896,3.705 0.175,0.435 -0.12,0.365 -7.987,-2.186 -4.066,0.798 0.407,1.164 0.678,0.649 5.699,2.631 L -5.2,7.148 -1.804,6.933 -1.836,6.328 -2.063,5.809 -2.15,5.385 -2.002,5.029 -1.97,4.748 -1.919,4.466 -2.007,3.89 -2.196,3.344 -2.298,2.92 -2.141,2.517 -1.823,2.167 -1.435,1.979 -1.177,1.356 -1.347,0.384 Z"
       style="fill:#878787;fill-opacity:1;fill-rule:evenodd;stroke:#f9f9f9;stroke-width:0.25;stroke-linecap:round;stroke-linejoin:round;stroke-miterlimit:4;stroke-dasharray:none;stroke-opacity:1"
       transform="matrix(1.3333333,0,0,-1.3333333,461.692,326.1556)" />
    <path
       id="path16"
       d="m 0,0 -0.909,1.62 -0.383,1.895 0.06,1.911 -0.461,1.644 -1.371,0.841 -1.324,0.43 -1.44,-0.299 -0.12,1.575 0.079,1.53 0.535,2.141 1.01,1.821 0.407,0.928 0.452,0.825 0.734,0.555 0.17,0.961 -0.572,0.19 -0.618,0.28 -0.752,-0.549 -0.586,-0.791 -0.217,-1.302 -0.586,-0.942 -0.647,-2.395 -1.167,-0.944 -0.641,-0.217 -0.997,0.581 -1.458,0.726 -0.586,1.088 -0.411,1.959 -0.701,1.306 -0.351,1.524 0.895,3.705 0.176,0.435 -0.12,0.364 -7.987,-2.186 -4.066,0.799 0.407,1.163 0.678,0.65 5.699,2.631 0.207,1.708 0.558,1.596 -0.083,0.935 0.872,1.899 1.237,1.795 0.941,1.637 0.374,0.401 0.424,-0.066 0.416,0.117 0.226,0.425 0.06,0.48 0.138,0.609 0.217,0.587 0.111,0.63 -0.097,0.631 -0.295,0.561 -0.369,0.338 0.046,1.147 -0.586,0.412 -0.766,1.545 -0.6,0.349 -0.526,0.554 -0.351,0.827 -2.109,0.286 -1.725,1.451 -1.929,0.881 -3.71,-1.589 -1.749,0.001 -2.081,0.429 -0.014,0.003 -0.857,-0.656 -1.94,-0.783 -0.822,-0.136 -0.911,-0.409 0.457,-0.938 1.533,-1.702 -0.948,0.118 -0.905,0.263 0.371,-1.398 -0.225,-0.794 -0.44,-0.744 -0.261,-1.251 -0.371,0.169 -0.258,0.218 -0.174,0.32 -0.135,0.469 0.734,0.225 0.128,0.497 -0.378,1.735 -0.396,0.667 -0.088,0.459 0.044,0.44 0.207,0.759 0.047,0.34 -0.098,1.595 -0.185,0.822 -0.32,0.459 -0.458,-0.084 -0.839,-1.084 -0.534,-0.354 0.701,2.413 -0.065,1.193 -0.941,0.969 -0.777,0.51 -1.083,0.291 -0.855,0.314 -0.773,0.099 -0.692,-0.006 -0.736,-0.346 -0.413,-0.778 -0.283,-0.477 -0.183,-0.453 0.17,-1.371 -0.119,-0.463 -0.197,-0.414 -0.49,-0.34 0.163,0.918 -0.054,0.522 -0.443,0.85 -0.088,0.4 0.434,0.511 0.21,0.756 -0.446,0.763 -0.653,0.361 -0.678,0.462 -0.35,0.357 -0.853,0.591 -0.894,0.639 -0.639,0.562 -0.712,0.344 -0.818,-0.023 0.098,-0.866 0.416,-1.291 0.925,-0.867 0.85,-0.409 0.633,-0.157 0.305,-0.36 -0.04,-0.384 -0.418,-0.245 -0.556,0.002 -0.458,0.209 -0.378,0.337 -0.712,0.892 -0.458,0.432 -0.381,0.068 -0.153,-0.603 0.196,-0.157 2.736,-2.897 0.342,-0.568 0.389,-1.138 0.319,-0.426 v -0.344 l -0.636,0.027 -0.337,0.368 -0.229,0.559 -0.316,0.604 -0.774,0.859 -0.541,0.368 -0.24,-0.309 -0.19,-1.313 -0.817,-2.667 -0.182,-1.39 -0.145,-0.261 -0.327,0.191 -0.326,0.506 -0.15,0.722 v 2.495 l 0.128,0.345 0.403,0.481 0.08,0.146 -0.047,0.382 -0.208,0.354 -0.051,0.391 -0.185,0.468 -0.436,0.01 -0.505,-0.276 -0.392,-0.393 -0.283,0.905 0.261,0.634 0.429,0.485 0.225,0.457 -0.334,0.739 -0.789,0.278 -1.645,-0.028 v -0.416 l 0.195,-0.421 -0.17,-0.173 -0.375,0.075 -0.424,0.328 -0.436,0.248 -0.48,-0.082 -0.443,-0.31 -0.331,-0.429 0.818,0.061 0.686,-0.209 0.317,-0.514 -0.295,-0.866 -0.643,0.466 -0.214,-0.182 0.141,-0.518 0.433,-0.528 0.578,-0.234 1.169,-0.02 0.389,-0.13 0.349,-0.927 -0.164,-1.254 -0.632,-1.029 -1.075,-0.252 v -0.348 l 0.861,-0.361 0.356,-0.054 v -0.348 l -0.894,-0.227 -0.465,-0.188 -0.189,-0.189 -0.204,-0.603 -0.439,0.286 -0.719,0.921 -0.476,-0.558 0.326,-1.246 0.924,-2.001 -1.287,0.884 -0.563,-0.016 -0.752,-0.694 -0.32,-0.147 -0.236,0.297 -0.145,0.508 -0.044,0.481 0.167,0.146 0.803,0.526 0.244,0.263 -0.037,0.223 -0.28,0.821 -0.014,0.513 0.273,0.484 0.436,0.463 0.272,0.518 -0.556,1.47 -0.196,1.222 -0.032,1.207 0.134,0.771 -1.039,-0.321 -0.207,-1.377 0.112,-1.689 -0.08,-1.256 -0.291,-0.502 -0.297,-0.207 -1.109,-0.02 -0.614,0.132 -0.108,0.377 0.283,1.362 -1.09,-0.392 -0.771,-0.627 -0.065,-0.777 1.01,-0.838 -0.737,-1.189 0.083,-0.695 0.702,-0.317 1.14,-0.082 -0.338,-0.663 -0.523,-0.136 -1.272,0.382 0.477,-0.858 0.468,-0.663 -0.381,0.082 -0.338,0.118 -0.294,0.023 -0.237,-0.223 -0.308,0.454 -0.24,0.458 -0.193,0.486 -0.142,0.54 -0.177,-0.712 -0.226,-0.509 -1.144,-1.456 -0.124,-0.376 0.087,-1.356 -0.054,-1.396 0.175,-0.449 0.523,0.476 0.25,0.644 0.131,1.387 0.229,0.666 0.578,-0.476 0.719,-0.211 0.687,-0.337 0.479,-0.875 0.011,-0.841 -0.469,-0.32 -1.842,0.018 -0.218,-0.231 0.07,-0.512 0.185,-0.518 0.13,-0.259 0.542,-0.315 0.457,0.032 0.458,0.181 0.513,0.102 0.872,0.324 1.18,1.496 0.825,0.462 0.338,-1.52 -0.392,-1.081 1.311,-2.156 -0.614,-1.358 0.153,-0.321 0.102,-0.376 0.05,-0.414 -0.007,-0.407 0.389,0.577 0.484,0.475 0.577,0.33 0.683,0.136 -0.752,1.021 -0.066,0.459 0.491,0.417 -0.294,0.917 -0.814,1.303 -0.418,0.856 1.017,0.016 0.324,0.652 0.109,0.891 0.403,0.725 0.72,0.127 0.479,-0.575 -0.154,-1.413 0.512,-0.244 -0.265,-1.086 -0.215,-3.006 0.859,-0.566 0.863,-0.039 0.827,-0.646 0.404,0.509 0.474,1.243 -0.196,1.457 0.329,1.086 -0.056,0.944 -0.316,0.485 -0.025,0.392 0.142,0.394 0.708,0.303 0.633,0.692 0.374,0.32 0.138,-0.49 0.207,-0.345 0.599,-0.684 -1.044,-0.166 -0.342,-0.685 0.216,-0.931 1.071,-0.201 0.425,-0.771 -0.629,-0.507 -0.453,-0.651 0.717,-0.711 0.529,-0.11 0.364,-0.483 -0.268,-0.6 -0.069,-0.677 -0.931,0.031 -0.893,-0.416 -0.616,-0.038 0.019,-0.234 0.272,-0.405 0.225,-0.955 0.037,-0.51 -0.195,-0.466 0.207,-0.51 0.212,-0.043 0.35,-0.233 0.387,-0.365 0.856,0.31 0.142,-0.303 -0.432,-0.674 -0.931,-1.091 -0.029,-0.621 0.258,-1.053 0.407,-1.026 0.444,-0.54 0.708,0.136 0.963,1.437 0.628,0.359 h 2.605 l -0.869,-0.466 -1.839,-0.513 -0.859,-1.254 -0.921,-0.28 -0.81,-0.448 0.67,-1.244 h -0.582 V 18.42 l 0.36,-0.318 0.527,-0.644 0.305,-0.212 1.471,-0.009 0.706,-0.185 0.286,-0.735 -0.414,-0.577 -1.987,-0.483 -0.672,-0.623 0.683,-0.363 1.896,-0.581 0.494,-0.607 -0.654,-0.435 -0.537,-1.137 -0.938,-2.582 0.277,-0.391 0.334,-0.365 0.254,-0.14 0.356,0.21 0.298,-0.07 0.498,-0.365 0.374,-0.43 0.661,-1.094 -1.872,0.541 -1.339,-0.424 -1.516,-0.769 -0.178,-1.615 0.305,-0.282 0.149,0.358 0.271,1.041 0.871,0.138 1.009,-0.647 0.023,-0.608 0.281,-0.003 0.594,0.344 0.785,-0.341 1.021,-1.759 0.559,-0.187 0.61,-0.256 0.291,-0.346 -0.621,-0.504 0.403,-0.672 0.752,-0.99 0.371,-0.6 0.232,-0.695 0.073,-0.505 0.229,-0.384 0.679,-0.332 0.934,0.413 0.996,0.169 0.835,0.402 0.756,0.727 0.901,0.623 0.918,0.282 2.01,2.481 2.136,0.234 2.511,0.54 4.623,1.459 1.647,-0.33 -0.396,-2.438 0.95,-1.482 1.32,0.247 1.25,0.486 2.46,0.479 0.646,0.225 0.631,0.283 0.937,0.194 0.6,0.935 0.748,0.767 1.425,-1.268 2.008,-3.62 1.481,-0.746 0.572,-0.146 0.267,-0.55 -0.313,-0.631 0.185,-0.443 2.584,-0.339 0.964,0.237 1.315,0.061 1.324,0.368 1.084,0.953 1.057,1.062 z m -52.831,21.16 -0.336,1.027 -0.122,0.53 0.045,0.276 0.05,0.349 -0.633,0.355 -0.305,0.061 v 0.343 h 0.938 l -0.397,0.693 -0.507,0.301 -0.23,0.399 0.196,0.452 -0.119,0.542 -0.753,1.706 -0.04,0.382 0.34,0.273 0.194,0.408 -0.079,0.341 -0.594,0.953 -0.851,-0.291 -0.791,-0.736 -0.386,-0.506 0.461,-1.553 0.206,-1.23 0.171,-2.035 -0.243,-1.333 0.468,0.252 0.207,-0.5 0.61,0.723 0.306,-0.343 -0.807,-1.118 -0.138,-0.829 0.498,-0.24 1.064,0.673 -0.181,-0.491 -0.343,-0.316 -0.215,-0.295 0.122,-0.83 0.643,-0.104 1.984,0.113 0.424,-0.199 -0.254,0.867 z"
       style="fill:#878787;fill-opacity:1;fill-rule:nonzero;stroke:#f9f9f9;stroke-width:0.25;stroke-linecap:round;stroke-linejoin:round;stroke-miterlimit:4;stroke-dasharray:none;stroke-opacity:1"
       transform="matrix(1.3333333,0,0,-1.3333333,473.2708,352.77667)" />
    <path
       id="path17"
       d="M 0,0 1.48,0.359 2.957,1.183 3.853,1.875 4.919,1.65 5.8,2.114 6.833,2.913 9.325,2.024 11.872,1.622 12.675,1.379 12.158,0.2 l -1.287,-0.918 -0.767,-1.189 0.49,-0.552 0.633,-0.351 0.396,-0.008 0.406,0.191 1.357,0.454 2.127,0.243 0.443,-0.489 -0.079,-0.798 0.887,-0.922 0.322,-0.736 0.812,0.062 0.96,0.17 1.076,0.344 1.065,0.007 1.062,-0.805 1.176,-0.763 1.162,-0.23 1.136,-0.132 0.904,-0.393 0.896,-0.579 -0.545,-0.62 -0.604,-0.35 -0.531,0.206 -0.433,-0.277 -1.03,-1.093 -1.135,-0.95 -0.743,-0.722 -0.922,-0.29 -0.554,-0.461 -0.393,-0.712 -1.38,-0.98 -0.982,-1.406 -0.466,-1.05 -0.568,-1.041 0.314,-0.546 0.591,-0.545 -0.66,-2.189 -3.737,-1.572 -1.592,0.524 -0.665,1.347 -1.052,0.912 -0.743,0.53 -0.581,0.653 -0.582,-0.575 -0.466,-0.737 -0.222,-0.868 -0.313,-0.919 -1.287,0.1 -1.38,0.486 -0.72,0.465 -0.762,-0.491 -0.733,-0.989 -0.891,-0.077 -0.714,0.474 -0.541,-0.916 -0.558,-1.218 -0.3,-1.142 0.854,-1.103 0.65,-1.251 -3.165,0.503 -1.702,0.74 -0.97,-1.448 -1.559,-0.74 -1.389,-0.945 -0.115,-0.661 0.027,-0.519 -0.249,-0.568 -1.006,-1.352 -0.645,-0.692 -0.656,-0.119 -0.66,-0.308 0.503,-1.27 1.749,-0.298 2.187,-3.179 -0.812,-0.793 -0.443,-1.269 -0.18,-3.023 -0.268,-1.333 0.282,-0.955 0.494,-0.875 -0.642,-1.277 -0.987,-0.855 0.268,-2.631 1.794,0.423 1.08,-0.353 1.264,-1.057 0.867,-0.412 2.281,0.548 1.009,-0.746 0.508,-2.885 -0.95,0.058 -1.07,0.198 -1.08,-0.926 0.249,-1.485 0.009,-0.757 -0.097,-0.91 -0.429,-0.521 -0.347,-0.617 -0.373,-1.417 -0.692,-1.352 -1.121,-0.376 -1.084,-0.532 -0.572,-0.602 -0.573,-0.525 -0.655,0.355 -0.65,0.622 -1.648,-0.744 -1.435,-0.88 -0.715,0.205 -0.416,0.521 -1.998,0.657 -0.669,0.795 -0.757,0.446 -0.29,-0.389 -0.36,-0.089 -0.425,0.389 -0.383,0.461 -1.015,1.58 -0.908,1.619 -0.384,1.895 0.06,1.911 -0.461,1.645 -1.371,0.841 -1.324,0.43 -1.439,-0.299 -0.12,1.574 0.078,1.53 0.535,2.142 1.011,1.82 0.406,0.929 0.452,0.824 0.734,0.555 0.17,0.961 -0.571,0.191 -0.619,0.28 -0.752,-0.55 -0.586,-0.79 -0.461,1.475 -0.079,0.991 -0.549,0.282 0.078,0.633 -0.623,0.154 -0.521,-0.758 -1.44,-0.32 -1.347,0.385 0.17,0.972 -0.258,0.622 -0.388,0.188 -0.318,0.35 -0.157,0.403 0.102,0.425 0.189,0.545 0.088,0.577 -0.051,0.281 -0.032,0.281 -0.148,0.356 0.088,0.424 0.226,0.519 0.032,0.605 -3.396,0.215 -3.285,-0.66 0.207,1.707 0.559,1.596 -0.083,0.935 0.872,1.899 1.236,1.795 0.942,1.637 0.373,0.402 0.425,-0.067 0.415,0.117 0.226,0.426 0.06,0.479 0.138,0.609 0.217,0.588 0.111,0.629 -0.097,0.632 -0.295,0.56 -0.369,0.339 0.046,1.147 -0.586,0.412 -0.766,1.545 -0.6,0.348 -0.526,0.554 -0.35,0.828 2.002,0.588 1.897,0.915 1.485,0.499 0.402,1.644 0.729,0.791 1.144,0.495 0.54,0.7 0.369,0.929 0.692,0.737 0.872,-0.184 0.254,-0.336 1.121,0.782 2.132,3.971 0.217,0.476 0.258,0.437 0.347,0.278 0.359,0.252 0.36,0.541 0.314,0.597 4.716,1.293 4.748,0.65 -0.383,-2.703 1.356,0.321 1.367,-0.096 0.377,-0.235 0.384,-0.18 0.346,0.303 0.3,0.366 0.904,0.62 -0.244,2.723 0.844,1.037 2.275,0.771 1.698,-1.801 V 0.777 Z"
       style="fill:#878787;fill-opacity:1;fill-rule:evenodd;stroke:#f9f9f9;stroke-width:0.25;stroke-linecap:round;stroke-linejoin:round;stroke-miterlimit:4;stroke-dasharray:none;stroke-opacity:1"
       transform="matrix(1.3333333,0,0,-1.3333333,499.5664,271.748)" />
    <path
       id="path18"
       d="m 0,0 -0.221,-0.444 -0.689,0.014 -0.51,0.023 -0.628,-0.104 -0.462,0.028 -0.485,-0.219 -0.533,-0.064 -0.043,-0.766 0.356,-0.532 0.06,-0.637 -0.23,-0.727 -1,-0.468 -0.808,0.706 -0.49,0.405 -0.364,0.449 -1.17,-1.256 -0.533,-1 -0.171,-1.065 -0.362,-0.255 -0.214,0.536 -0.533,0.578 0.045,-0.515 0.106,-1.109 H -9.22 l -0.15,0.367 -0.192,0.087 -0.458,-0.306 -0.434,-0.274 -0.298,0.368 -0.361,1.229 0.149,1.106 0.341,1.406 0.064,0.788 0.371,0.678 0.678,0.844 0.637,0.971 0.466,3.227 0.636,0.791 0.849,0.617 1.053,0.421 1.13,-0.044 0.877,-0.56 0.249,-1.199 0.799,-1.111 1.019,-0.826 0.808,-1.043 0.899,-0.919 z"
       style="fill:#878787;fill-opacity:1;fill-rule:evenodd;stroke:#f9f9f9;stroke-width:0.25;stroke-linecap:round;stroke-linejoin:round;stroke-miterlimit:4;stroke-dasharray:none;stroke-opacity:1"
       transform="matrix(1.3333333,0,0,-1.3333333,568.694,418.27213)" />
  </g>
  <g
     id="layer-MC2"
     inkscape:groupmode="layer"
     inkscape:label="copyright">
    <text
       id="text18"
       xml:space="preserve"
       transform="matrix(1.3333333,0,0,1.3333333,778.27933,703.776)"><tspan
         id="tspan18"
         style="font-variant:normal;font-weight:300;font-stretch:normal;font-size:8px;font-family:Roboto-Light;writing-mode:lr-tb;fill:#333333;fill-opacity:1;fill-rule:nonzero;stroke:none"
         x="0"
         dx="0 0.079999998 0.079999998 0 0.079999998 0.079999998 0.079999998 0.079999998 0.079999998 0.079999998 0.079999998 0.079999998 0.079999998 0 0 0.079999998 0.079999998 0.079999998 -0.093599997 0.079999998 0.079999998 0 0.079999998 0.079999998 0.079999998 0.079999998 0.079999998 0.079999998 0.079999998 0.079999998 0.079999998 0.079999998"
         y="0">Copyright  Free Vector Maps.com</tspan></text>
  </g>
</svg>
